<?xml version="1.0" encoding="UTF-8"?>
<svg version="1.1" xmlns="http://www.w3.org/2000/svg" width="256" height="256">
<path d="M0 0 C2.43314212 1.89858817 4.73628171 3.86974324 7.015625 5.94921875 C7.6240625 6.46613281 8.2325 6.98304687 8.859375 7.515625 C22.16175742 19.57846724 30.22541463 38.92105656 31.37109375 56.55078125 C31.86721959 68.75041935 29.83768146 79.41576728 26.015625 90.94921875 C25.56485596 92.3264209 25.56485596 92.3264209 25.10498047 93.73144531 C15.32426268 123.15744749 1.83209461 151.03688657 -11.90576172 178.76983643 C-12.9760712 180.93244058 -14.04319713 183.09658681 -15.109375 185.26123047 C-24.56227605 204.44393253 -34.32791459 223.40000612 -44.984375 241.94921875 C-45.644375 241.94921875 -46.304375 241.94921875 -46.984375 241.94921875 C-55.88326795 225.68827032 -64.58717771 209.33563293 -73.02282715 192.82940674 C-74.01378424 190.89171262 -75.00733657 188.95536248 -76.00097656 187.01904297 C-131.93456434 77.8553942 -131.93456434 77.8553942 -120.375 39.83203125 C-116.57164376 28.66605854 -110.94443711 18.6743584 -102.984375 9.94921875 C-102.46746094 9.34078125 -101.95054688 8.73234375 -101.41796875 8.10546875 C-93.23194033 -0.92173051 -81.35781714 -7.12093335 -69.984375 -11.05078125 C-69.13617188 -11.36917969 -68.28796875 -11.68757812 -67.4140625 -12.015625 C-44.69697371 -19.20164288 -19.19626047 -13.19114757 0 0 Z M-84.87890625 29.1640625 C-93.50088561 40.56938956 -98.20680971 53.62926923 -96.984375 67.94921875 C-94.67930302 82.55446474 -87.87216096 95.41146141 -75.8671875 104.2421875 C-62.22126321 113.05584919 -48.41098776 115.23082634 -32.41015625 112.29296875 C-18.73267567 108.14502693 -7.78499559 99.30991012 -0.97192383 86.76123047 C5.41517349 74.2500042 6.90438407 61.65757105 3.11328125 48.0625 C-2.06443204 33.37695732 -10.84434739 23.75233627 -24.5078125 16.61328125 C-45.24418383 6.68778217 -69.24903595 12.56622209 -84.87890625 29.1640625 Z " fill="#CBD5F6" transform="translate(173.984375,14.05078125)"/>
<path d="M0 0 C6.29307757 3.67871201 10.76495676 8.65025562 13.02734375 15.640625 C14.74793611 24.00185068 14.07664967 31.65987676 9.5 38.9375 C4.62738587 44.89291727 -2.00634424 49.34958245 -9.7265625 50.17578125 C-17.65708584 50.42118832 -24.25182205 48.69139 -30.375 43.5 C-31.07625 42.654375 -31.7775 41.80875 -32.5 40.9375 C-33.221875 40.133125 -33.94375 39.32875 -34.6875 38.5 C-39.16637941 32.16779119 -39.12347611 25.44890272 -38.5 17.9375 C-37.07994013 10.88493375 -33.13678887 5.58974382 -27.37890625 1.390625 C-18.92302796 -3.55238431 -8.94796911 -4.05623298 0 0 Z " fill="#CCD6F6" transform="translate(140.5,53.0625)"/>
</svg>
