<?xml version="1.0" encoding="UTF-8"?>
<svg version="1.1" xmlns="http://www.w3.org/2000/svg" width="256" height="256">
<path d="M0 0 C0.91467041 0.00612305 1.82934082 0.01224609 2.77172852 0.01855469 C15.25263806 0.30605681 25.24873313 4.27020318 33.95703125 13.34375 C46.08034588 28.56177492 44.78485366 51.41518323 44.72265625 69.796875 C44.72078665 71.43882199 44.71936531 73.08076954 44.71836853 74.72271729 C44.71458598 79.00351556 44.70479311 83.28427884 44.69366455 87.56506348 C44.68153944 92.72315752 44.67702786 97.8812634 44.67121124 103.03936768 C44.66157825 110.8387693 44.64239213 118.63809446 44.625 126.4375 C31.755 126.4375 18.885 126.4375 5.625 126.4375 C5.57601562 121.84714844 5.52703125 117.25679687 5.4765625 112.52734375 C5.44110205 109.58787096 5.40510015 106.64842409 5.3671875 103.70898438 C5.30729894 99.06180906 5.24922142 94.41466925 5.203125 89.76733398 C5.16575901 86.01298442 5.1192747 82.25884069 5.06693649 78.5046711 C5.04866061 77.08527873 5.0334584 75.66584272 5.02165604 74.24638176 C5.3563352 56.59028963 5.3563352 56.59028963 -0.375 40.4375 C-0.375 39.7775 -0.375 39.1175 -0.375 38.4375 C-7.80904797 35.42369677 -14.78721107 34.00403127 -22.765625 36.05078125 C-28.24642521 38.42509737 -30.9718917 42.0834198 -33.375 47.4375 C-35.97662225 55.89595207 -35.72084073 64.75008417 -35.7890625 73.5078125 C-35.80780868 75.04052736 -35.82738456 76.57323228 -35.8477478 78.10592651 C-35.89871119 82.107199 -35.9385265 86.10850482 -35.97589111 90.10992432 C-36.02325788 94.92850319 -36.08469984 99.74692136 -36.14373779 104.56536865 C-36.23151279 111.85601294 -36.30158905 119.14663329 -36.375 126.4375 C-49.245 126.4375 -62.115 126.4375 -75.375 126.4375 C-75.375 85.8475 -75.375 45.2575 -75.375 3.4375 C-62.835 3.4375 -50.295 3.4375 -37.375 3.4375 C-36.88 9.8725 -36.88 9.8725 -36.375 16.4375 C-35.59125 15.40625 -34.8075 14.375 -34 13.3125 C-25.33668379 3.26630702 -12.84191341 -0.14743054 0 0 Z " fill="#CBD5F5" transform="translate(174.375,92.5625)"/>
<path d="M0 0 C12.54 0 25.08 0 38 0 C38 40.59 38 81.18 38 123 C25.46 123 12.92 123 0 123 C0 82.41 0 41.82 0 0 Z " fill="#CBD5F5" transform="translate(38,96)"/>
<path d="M0 0 C4.2219486 3.77701256 6.66776983 8.19922243 7.3359375 13.83203125 C7.43678856 21.52696711 6.64555359 26.85389113 1.4921875 32.71484375 C-3.25618653 37.23132045 -8.75358721 39.89471704 -15.36328125 40.05859375 C-24.11897454 39.36696756 -28.70644535 35.62120531 -34.36328125 29.15625 C-38.46576089 23.75155129 -37.61509709 16.44421481 -37 10 C-34.85880668 3.62644793 -29.71563355 -0.7160674 -24 -4 C-15.29180426 -6.8332054 -7.45016638 -5.05499744 0 0 Z " fill="#CCD6F6" transform="translate(72,40)"/>
</svg>
