<?xml version="1.0" encoding="UTF-8"?>
<svg version="1.1" xmlns="http://www.w3.org/2000/svg" width="256" height="256">
<path d="M0 0 C4.25031324 2.71078943 7.71343832 5.9646328 11.33203125 9.45214844 C14.05036749 11.97472627 16.99125236 14.19020216 19.9375 16.4375 C25.44568419 20.70501922 30.75704013 25.16360023 36.02441406 29.72363281 C40.14076229 33.28214729 44.33407099 36.7209518 48.6015625 40.09765625 C54.56078753 44.82427285 60.41607454 49.68165732 66.265625 54.54296875 C67.01577881 55.16478027 67.76593262 55.7865918 68.53881836 56.42724609 C70.02341624 57.65822052 71.50609149 58.89151844 72.98657227 60.12744141 C76.86234094 63.33805719 80.75200683 66.29915662 85 69 C91.27495197 63.95133802 97.43083389 58.79286844 103.5 53.5 C108.63225242 49.02462447 113.83185297 44.65992855 119.125 40.375 C122.63547639 37.47504125 126.06832727 34.49241862 129.5 31.5 C134.62322514 27.03254768 139.81252436 22.67422841 145.09765625 18.3984375 C149.42610947 14.8214923 153.65145256 11.12759599 157.875 7.42773438 C159.57532421 5.94220696 161.28524466 4.46881975 163 3 C163.70769531 2.38769531 164.41539062 1.77539062 165.14453125 1.14453125 C168.80115971 -1.11103115 172.87466668 -0.55211228 177 0 C182.92946532 1.81891744 186.50862003 4.96830534 190 10 C191.66051889 13.52266291 192.25271566 16.29639281 192.26742554 20.17903137 C192.28022049 21.71178963 192.28022049 21.71178963 192.29327393 23.2755127 C192.29191437 24.94088074 192.29191437 24.94088074 192.29052734 26.63989258 C192.29724457 27.81770798 192.30396179 28.99552338 192.31088257 30.20903015 C192.32660851 33.43234926 192.33323665 36.65551358 192.33451414 39.87886643 C192.33593827 41.8956164 192.34021284 43.91233957 192.34550858 45.92908287 C192.36399958 52.97332847 192.3721805 60.01749851 192.37060547 67.06176758 C192.36940482 73.61415993 192.39049409 80.16622249 192.4220928 86.71853143 C192.44830122 92.35524434 192.45897084 97.99184986 192.45769465 103.62862319 C192.45718628 106.99022794 192.46279917 110.35153955 192.48405075 113.71308327 C192.50367692 117.46630726 192.49788466 121.21868581 192.48583984 124.97192383 C192.49707886 126.0760965 192.50831787 127.18026917 192.51989746 128.31790161 C192.46240761 135.37855904 191.57802802 141.24493383 186.55267906 146.5189333 C178.32266388 153.70679963 174.48604573 152 162 152 C161.67 117.68 161.34 83.36 161 48 C153.65346388 53.65118163 146.30899732 59.30108843 139 65 C130.67489618 71.48279977 122.31662912 77.92074492 113.9453125 84.34375 C112.91148437 85.1378125 111.87765625 85.931875 110.8125 86.75 C110.29453857 87.14670898 109.77657715 87.54341797 109.24291992 87.95214844 C105.92553495 90.49870733 102.63413967 93.07562124 99.35546875 95.671875 C98.55197998 96.30512695 97.74849121 96.93837891 96.9206543 97.59082031 C95.33621068 98.8404773 93.75548206 100.09486255 92.17895508 101.35449219 C85.43292898 106.66308491 85.43292898 106.66308491 81 108 C80.29617187 107.40574219 79.59234375 106.81148438 78.8671875 106.19921875 C71.03992889 99.62881759 63.059535 93.28208799 55 87 C46.89568704 80.6765273 38.86326491 74.2779053 30.90209961 67.77490234 C25.79562433 63.6160907 20.60901146 59.58032866 15.35546875 55.609375 C10.49740784 51.83151157 5.76301446 47.89701183 1 44 C0.67 79.64 0.34 115.28 0 152 C-16.61797753 152 -16.61797753 152 -22.5234375 146.609375 C-28.53022816 140.01232167 -28.29379881 132.83570496 -28.2746582 124.43017578 C-28.27976913 123.2717215 -28.28488007 122.11326721 -28.29014587 120.91970825 C-28.30403199 117.09485693 -28.30308574 113.27018601 -28.30078125 109.4453125 C-28.30368591 107.45583368 -28.30659542 105.46635479 -28.310188 103.47687709 C-28.32126775 97.22366144 -28.32172945 90.97050587 -28.31567383 84.71728516 C-28.30963678 78.28137194 -28.32194158 71.8456775 -28.3432439 65.4098016 C-28.36089896 59.87073382 -28.36685506 54.33173543 -28.36360615 48.79264057 C-28.36179911 45.490344 -28.36569742 42.18823752 -28.37832069 38.88595963 C-28.39068108 35.20000698 -28.38389503 31.51455809 -28.37231445 27.82861328 C-28.37995819 26.74471313 -28.38760193 25.66081299 -28.39547729 24.54406738 C-28.34792403 17.6830838 -27.85906939 11.50947381 -23.3515625 5.9765625 C-22.78179687 5.53054687 -22.21203125 5.08453125 -21.625 4.625 C-21.06039063 4.16351563 -20.49578125 3.70203125 -19.9140625 3.2265625 C-13.74516427 -0.7265682 -7.1105964 -1.52763644 0 0 Z " fill="#CBD5F5" transform="translate(46,52)"/>
</svg>
