<?xml version="1.0" encoding="UTF-8"?>
<svg version="1.1" xmlns="http://www.w3.org/2000/svg" width="256" height="256">
<path d="M0 0 C13.75578258 -0.43530958 25.78887493 5.52591662 37 13 C39.98274225 12.83799895 39.98274225 12.83799895 43.25 12.1875 C44.34828125 11.99542969 45.4465625 11.80335937 46.578125 11.60546875 C48.73802196 11.2232952 50.89701903 10.83596711 53.0546875 10.44140625 C58.99165087 9.77717173 64.90502243 9.76569033 70.875 9.75 C72.16535156 9.74605225 73.45570313 9.74210449 74.78515625 9.73803711 C83.41081992 9.79048755 91.41738063 10.50605599 99.8125 12.44140625 C105.59348196 13.454495 108.76646311 11.74536621 113.625 8.6875 C122.98315103 3.06799377 132.0374525 -0.21495191 143 0 C146.23424912 7.17159587 147.16362737 13.03364398 147.125 20.875 C147.12886719 21.65230469 147.13273438 22.42960937 147.13671875 23.23046875 C147.13055785 26.89620626 146.97198944 30.1494928 146.29296875 33.7734375 C145.70850643 36.98588352 145.70850643 36.98588352 147.29296875 39.484375 C147.91816406 40.23203125 148.54335937 40.9796875 149.1875 41.75 C159.2753672 54.91859311 159.32213756 71.35565865 157.78173828 87.25244141 C155.85496071 100.80760946 150.78517683 111.49534257 141 121 C140.02353516 121.99 140.02353516 121.99 139.02734375 123 C128.06597744 133.44368371 112.32653069 135.98388828 98 139 C98.598125 139.66 99.19625 140.32 99.8125 141 C105.76627577 149.1651782 106.14073655 158.41990538 106.31640625 168.2109375 C106.33718735 169.17907379 106.35796844 170.14721008 106.37937927 171.14468384 C106.44448984 174.22138732 106.50357998 177.29817236 106.5625 180.375 C106.60572186 182.46745617 106.6493373 184.55990426 106.69335938 186.65234375 C106.80013156 191.76814669 106.90150636 196.88403125 107 202 C109.64 202.99 112.28 203.98 115 205 C115 205.33 115 205.66 115 206 C86.62 206 58.24 206 29 206 C30.98 205.01 30.98 205.01 33 204 C35.61039625 201.89209062 36.84064942 200.74886221 37.54589844 197.43457031 C37.5668457 196.49194336 37.58779297 195.54931641 37.609375 194.578125 C37.64160156 193.55332031 37.67382812 192.52851563 37.70703125 191.47265625 C37.72121094 190.40917969 37.73539062 189.34570312 37.75 188.25 C37.79447266 186.63158203 37.79447266 186.63158203 37.83984375 184.98046875 C37.91046936 182.32023756 37.96320196 179.66087898 38 177 C37.42580322 177.16008545 36.85160645 177.3201709 36.26000977 177.48510742 C24.75133404 180.10710128 12.00784177 178.63068566 1.87890625 172.7734375 C-3.89711666 168.56245783 -6.52103349 162.57615574 -9.640625 156.34765625 C-14.14546039 147.46225678 -20.31915857 141.24068366 -28 135 C-27.505 133.02 -27.505 133.02 -27 131 C-20.15441692 129.06919452 -14.80327004 131.46094978 -8.8125 134.75 C-4.73988909 138.00808873 -1.53285552 141.741507 1.39453125 146.0546875 C5.63285414 152.24287244 10.26224662 155.96083909 17.70703125 157.59375 C23.56418382 158.31463032 29.46487619 158.26017555 35 156 C38.36644159 153.35437296 38.96797815 150.34362715 40.05859375 146.3515625 C41.2280003 143.43047228 42.95831533 141.37288198 45 139 C44.14003418 138.81207886 44.14003418 138.81207886 43.26269531 138.62036133 C14.57576845 132.27713291 14.57576845 132.27713291 3 122 C2.38511719 121.50113281 1.77023438 121.00226563 1.13671875 120.48828125 C-9.61281045 111.02583537 -14.25600809 94.60194234 -15.14257812 80.77661133 C-15.78783242 64.74237128 -13.96298397 50.67887054 -3.265625 37.93359375 C-2.84796875 37.29550781 -2.4303125 36.65742187 -2 36 C-2.44174381 34.16506419 -2.89949158 32.33249083 -3.4375 30.5234375 C-5.60817542 20.78554636 -4.48806545 8.9761309 0 0 Z " fill="#CCD6F6" transform="translate(63,25)"/>
</svg>
