<?xml version="1.0" encoding="UTF-8"?>
<svg version="1.1" xmlns="http://www.w3.org/2000/svg" width="721" height="305">
<path d="M0 0 C237.93 0 475.86 0 721 0 C721 100.65 721 201.3 721 305 C483.07 305 245.14 305 0 305 C0 204.35 0 103.7 0 0 Z " fill="#0A0A0A" transform="translate(0,0)"/>
<path d="M0 0 C11.88 0 23.76 0 36 0 C36 1.98 36 3.96 36 6 C37.32 6 38.64 6 40 6 C41.76930509 16.90007629 42.254266 27.41452461 42.125 38.4375 C42.11493151 39.95897836 42.10581262 41.48046331 42.09765625 43.00195312 C42.07599182 46.6681096 42.04168449 50.33400983 42 54 C40.02 54 38.04 54 36 54 C36 58.29 36 62.58 36 67 C24.12 67 12.24 67 0 67 C0 62.71 0 58.42 0 54 C-0.66 54 -1.32 54 -2 54 C-2 55.98 -2 57.96 -2 60 C-2.33 60 -2.66 60 -3 60 C-3 58.02 -3 56.04 -3 54 C-3.99 54 -4.98 54 -6 54 C-6 40.8 -6 27.6 -6 14 C-4.02 14 -2.04 14 0 14 C0 9.38 0 4.76 0 0 Z " fill="#C3C4C2" transform="translate(252,38)"/>
<path d="M0 0 C2.97 0 5.94 0 9 0 C9 87.78 9 175.56 9 266 C6.03 266 3.06 266 0 266 C0 178.22 0 90.44 0 0 Z " fill="#141414" transform="translate(712,39)"/>
<path d="M0 0 C9.9 0 19.8 0 30 0 C30 4.62 30 9.24 30 14 C31.98 14 33.96 14 36 14 C36 31.49 36 48.98 36 67 C32.04 67 28.08 67 24 67 C24 58.09 24 49.18 24 40 C18.06 40 12.12 40 6 40 C6 48.91 6 57.82 6 67 C2.04 67 -1.92 67 -6 67 C-6 49.51 -6 32.02 -6 14 C-4.02 14 -2.04 14 0 14 C0 9.38 0 4.76 0 0 Z " fill="#C2C4C2" transform="translate(413,38)"/>
<path d="M0 0 C3.63 0 7.26 0 11 0 C11 17.49 11 34.98 11 53 C13.31 53 15.62 53 18 53 C18 48.71 18 44.42 18 40 C19.65 40 21.3 40 23 40 C23 35.38 23 30.76 23 26 C24.98 26 26.96 26 29 26 C29 30.62 29 35.24 29 40 C30.98 40 32.96 40 35 40 C35 44.29 35 48.58 35 53 C37.31 53 39.62 53 42 53 C42 35.51 42 18.02 42 0 C45.63 0 49.26 0 53 0 C53 17.16 53 34.32 53 52 C51.02 52 49.04 52 47 52 C47 56.62 47 61.24 47 66 C41.39 66 35.78 66 30 66 C30 61.71 30 57.42 30 53 C27.69 53 25.38 53 23 53 C23 56.96 23 60.92 23 65 C17.39 65 11.78 65 6 65 C6 60.71 6 56.42 6 52 C4.02 52 2.04 52 0 52 C0 34.84 0 17.68 0 0 Z " fill="#C5C6C6" transform="translate(300,39)"/>
<path d="M0 0 C11.88 0 23.76 0 36 0 C36 4.62 36 9.24 36 14 C26.1 14 16.2 14 6 14 C6 27.2 6 40.4 6 54 C15.9 54 25.8 54 36 54 C36 57.96 36 61.92 36 66 C24.45 66 12.9 66 1 66 C0.67 62.04 0.34 58.08 0 54 C-0.99 53.67 -1.98 53.34 -3 53 C-3 55.64 -3 58.28 -3 61 C-3.33 61 -3.66 61 -4 61 C-4 58.69 -4 56.38 -4 54 C-4.66 54 -5.32 54 -6 54 C-6 40.8 -6 27.6 -6 14 C-4.02 14 -2.04 14 0 14 C0 9.38 0 4.76 0 0 Z " fill="#C0C1C1" transform="translate(365,38)"/>
<path d="M0 0 C7.92 0 15.84 0 24 0 C24 13.53 24 27.06 24 41 C16.08 41 8.16 41 0 41 C0 27.47 0 13.94 0 0 Z " fill="#0D0B0A" transform="translate(258,51)"/>
<path d="M0 0 C4.29 0 8.58 0 13 0 C13 1.98 13 3.96 13 6 C14.32 6 15.64 6 17 6 C17 24.48 17 42.96 17 62 C15.02 62 13.04 62 11 62 C11 66.29 11 70.58 11 75 C4.07 75 -2.86 75 -10 75 C-10 72.36 -10 69.72 -10 67 C-4.72 67 0.56 67 6 67 C6 62.38 6 57.76 6 53 C7.98 53 9.96 53 12 53 C12 35.84 12 18.68 12 1 C8.37 1 4.74 1 1 1 C1 18.49 1 35.98 1 54 C-1.31 54 -3.62 54 -6 54 C-6 49.71 -6 45.42 -6 41 C-7.98 41 -9.96 41 -12 41 C-12 36.38 -12 31.76 -12 27 C-11.67 27 -11.34 27 -11 27 C-11 28.98 -11 30.96 -11 33 C-9.68 33 -8.36 33 -7 33 C-7 35.31 -7 37.62 -7 40 C-6.34 40 -5.68 40 -5 40 C-5 41.98 -5 43.96 -5 46 C-3.68 46 -2.36 46 -1 46 C-0.67 30.82 -0.34 15.64 0 0 Z " fill="#76665E" transform="translate(341,38)"/>
<path d="M0 0 C0.33 0 0.66 0 1 0 C1 1.65 1 3.3 1 5 C2.32 5 3.64 5 5 5 C5 19.19 5 33.38 5 48 C3.02 48 1.04 48 -1 48 C-1 52.29 -1 56.58 -1 61 C-13.87 61 -26.74 61 -40 61 C-40 58.36 -40 55.72 -40 53 C-28.45 53 -16.9 53 -5 53 C-5 48.71 -5 44.42 -5 40 C-3.02 40 -1.04 40 1 40 C0.67 26.8 0.34 13.6 0 0 Z " fill="#737274" transform="translate(293,52)"/>
<path d="M0 0 C1.65 0 3.3 0 5 0 C5 5.28 5 10.56 5 16 C-4.9 16 -14.8 16 -25 16 C-25 26.23 -25 36.46 -25 47 C-16.75 47 -8.5 47 0 47 C0 47.33 0 47.66 0 48 C-9.9 48 -19.8 48 -30 48 C-30 34.8 -30 21.6 -30 8 C-20.1 8 -10.2 8 0 8 C0 5.36 0 2.72 0 0 Z " fill="#645958" transform="translate(401,44)"/>
<path d="M0 0 C1.98 0.495 1.98 0.495 4 1 C4 4.96 4 8.92 4 13 C15.55 13 27.1 13 39 13 C39 9.04 39 5.08 39 1 C39.33 1 39.66 1 40 1 C40 2.65 40 4.3 40 6 C41.32 6.33 42.64 6.66 44 7 C44 11.95 44 16.9 44 22 C31.13 22 18.26 22 5 22 C5 19.36 5 16.72 5 14 C4.34 14 3.68 14 3 14 C3 12.35 3 10.7 3 9 C1.68 8.67 0.36 8.34 -1 8 C-0.67 5.36 -0.34 2.72 0 0 Z " fill="#92989A" transform="translate(362,91)"/>
<path d="M0 0 C7.92 0 15.84 0 24 0 C24 13.53 24 27.06 24 41 C16.08 41 8.16 41 0 41 C0 27.47 0 13.94 0 0 Z M4 9 C4 19.23 4 29.46 4 40 C10.27 40 16.54 40 23 40 C23 29.77 23 19.54 23 9 C16.73 9 10.46 9 4 9 Z " fill="#697281" transform="translate(258,51)"/>
<path d="M0 0 C5.94 0 11.88 0 18 0 C18 2.97 18 5.94 18 9 C13.71 9 9.42 9 5 9 C5 17.58 5 26.16 5 35 C0.05 35 -4.9 35 -10 35 C-10 32.36 -10 29.72 -10 27 C-6.7 27 -3.4 27 0 27 C0 18.09 0 9.18 0 0 Z " fill="#2F2D39" transform="translate(419,78)"/>
<path d="M0 0 C4.29 0 8.58 0 13 0 C13 1.98 13 3.96 13 6 C14.32 6 15.64 6 17 6 C17.33 17.22 17.66 28.44 18 40 C19.98 40 21.96 40 24 40 C24 40.33 24 40.66 24 41 C22.35 41 20.7 41 19 41 C19 45.29 19 49.58 19 54 C16.69 54 14.38 54 12 54 C12 36.51 12 19.02 12 1 C8.37 1 4.74 1 1 1 C1 18.16 1 35.32 1 53 C0.67 53 0.34 53 0 53 C0 35.51 0 18.02 0 0 Z " fill="#615F65" transform="translate(299,38)"/>
<path d="M0 0 C1.98 0 3.96 0 6 0 C6 4.29 6 8.58 6 13 C11.61 13 17.22 13 23 13 C23 9.04 23 5.08 23 1 C25.31 1 27.62 1 30 1 C30 5.29 30 9.58 30 14 C29.67 14 29.34 14 29 14 C28.67 16.64 28.34 19.28 28 22 C21.07 22 14.14 22 7 22 C7 19.36 7 16.72 7 14 C6.34 14 5.68 14 5 14 C5 12.35 5 10.7 5 9 C3.68 9 2.36 9 1 9 C0.67 6.03 0.34 3.06 0 0 Z " fill="#848683" transform="translate(300,91)"/>
<path d="M0 0 C1.32 0 2.64 0 4 0 C4 18.48 4 36.96 4 56 C-0.62 56 -5.24 56 -10 56 C-10 53.36 -10 50.72 -10 48 C-6.7 48 -3.4 48 0 48 C0 32.16 0 16.32 0 0 Z " fill="#546B7E" transform="translate(449,57)"/>
<path d="M0 0 C0.33 0 0.66 0 1 0 C1 12.21 1 24.42 1 37 C-0.98 37 -2.96 37 -5 37 C-5 41.62 -5 46.24 -5 51 C-15.89 51 -26.78 51 -38 51 C-38 49.02 -38 47.04 -38 45 C-27.44 45 -16.88 45 -6 45 C-6 40.71 -6 36.42 -6 32 C-4.02 32 -2.04 32 0 32 C0 21.44 0 10.88 0 0 Z " fill="#130F0E" transform="translate(294,60)"/>
<path d="M0 0 C5.94 0 11.88 0 18 0 C18 4.29 18 8.58 18 13 C12.06 13 6.12 13 0 13 C0 8.71 0 4.42 0 0 Z " fill="#110E13" transform="translate(419,52)"/>
<path d="M0 0 C0.66 0 1.32 0 2 0 C2 3.63 2 7.26 2 11 C-8.89 11 -19.78 11 -31 11 C-31 9.02 -31 7.04 -31 5 C-20.77 5 -10.54 5 0 5 C0 3.35 0 1.7 0 0 Z " fill="#111113" transform="translate(401,100)"/>
<path d="M0 0 C0.66 0 1.32 0 2 0 C2 3.3 2 6.6 2 10 C-7.9 10 -17.8 10 -28 10 C-28 21.22 -28 32.44 -28 44 C-28.33 44 -28.66 44 -29 44 C-29 31.13 -29 18.26 -29 5 C-19.43 5 -9.86 5 0 5 C0 3.35 0 1.7 0 0 Z " fill="#0B1116" transform="translate(401,47)"/>
<path d="M0 0 C0.33 0 0.66 0 1 0 C1 16.5 1 33 1 50 C-0.98 50 -2.96 50 -5 50 C-5 54.62 -5 59.24 -5 64 C-9.95 64 -14.9 64 -20 64 C-20 62.02 -20 60.04 -20 58 C-15.71 58 -11.42 58 -7 58 C-7 53.38 -7 48.76 -7 44 C-4.69 44 -2.38 44 0 44 C0 29.48 0 14.96 0 0 Z " fill="#282F37" transform="translate(354,47)"/>
<path d="M0 0 C5.28 0 10.56 0 16 0 C16 0.99 16 1.98 16 3 C11.71 3 7.42 3 3 3 C3 11.58 3 20.16 3 29 C-1.95 29 -6.9 29 -12 29 C-12 26.36 -12 23.72 -12 21 C-11.01 21 -10.02 21 -9 21 C-9 22.98 -9 24.96 -9 27 C-6.03 27 -3.06 27 0 27 C0 18.09 0 9.18 0 0 Z " fill="#726962" transform="translate(421,84)"/>
<path d="M0 0 C7.59 0 15.18 0 23 0 C23 1.65 23 3.3 23 5 C12.605 5.495 12.605 5.495 2 6 C1.67 16.89 1.34 27.78 1 39 C0.67 39 0.34 39 0 39 C0 26.13 0 13.26 0 0 Z " fill="#130A0A" transform="translate(258,52)"/>
<path d="M0 0 C0.33 0 0.66 0 1 0 C1 17.49 1 34.98 1 53 C-1.31 53 -3.62 53 -6 53 C-6 48.71 -6 44.42 -6 40 C-7.98 40 -9.96 40 -12 40 C-12 35.38 -12 30.76 -12 26 C-11.67 26 -11.34 26 -11 26 C-11 27.98 -11 29.96 -11 32 C-9.68 32 -8.36 32 -7 32 C-7 34.31 -7 36.62 -7 39 C-6.34 39 -5.68 39 -5 39 C-5 40.98 -5 42.96 -5 45 C-3.68 45 -2.36 45 -1 45 C-0.67 30.15 -0.34 15.3 0 0 Z " fill="#5A7088" transform="translate(341,39)"/>
<path d="M0 0 C4.29 0 8.58 0 13 0 C13 3.63 13 7.26 13 11 C8.71 11 4.42 11 0 11 C0 7.37 0 3.74 0 0 Z " fill="#717377" transform="translate(1,8)"/>
<path d="M0 0 C2.97 0 5.94 0 9 0 C9 4.62 9 9.24 9 14 C6.03 14 3.06 14 0 14 C0 9.38 0 4.76 0 0 Z " fill="#484848" transform="translate(712,39)"/>
<path d="M0 0 C0.66 0 1.32 0 2 0 C2 2.31 2 4.62 2 7 C2.66 7 3.32 7 4 7 C4 5.68 4 4.36 4 3 C5.65 3 7.3 3 9 3 C9 4.65 9 6.3 9 8 C8.67 6.68 8.34 5.36 8 4 C7.34 4 6.68 4 6 4 C6 5.65 6 7.3 6 9 C1.38 9.33 -3.24 9.66 -8 10 C-8 9.34 -8 8.68 -8 8 C-9.65 8 -11.3 8 -13 8 C-13 6.35 -13 4.7 -13 3 C-12.14535156 2.95101562 -11.29070312 2.90203125 -10.41015625 2.8515625 C-9.30542969 2.77679688 -8.20070312 2.70203125 -7.0625 2.625 C-5.40927734 2.52058594 -5.40927734 2.52058594 -3.72265625 2.4140625 C-2.37494141 2.20910156 -2.37494141 2.20910156 -1 2 C-0.67 1.34 -0.34 0.68 0 0 Z " fill="#5A5B59" transform="translate(194,187)"/>
<path d="M0 0 C1.65 0 3.3 0 5 0 C5 1.65 5 3.3 5 5 C3.68 5 2.36 5 1 5 C1 9.62 1 14.24 1 19 C-3.95 19 -8.9 19 -14 19 C-14 17.02 -14 15.04 -14 13 C-9.38 13 -4.76 13 0 13 C0 8.71 0 4.42 0 0 Z " fill="#0C0B0A" transform="translate(324,92)"/>
<path d="M0 0 C0.66 0 1.32 0 2 0 C2.33 2.64 2.66 5.28 3 8 C-0.82320557 9.42258812 -3.91281305 10.24042276 -8 10 C-8.33 9.34 -8.66 8.68 -9 8 C-12.3 8 -15.6 8 -19 8 C-19 5.69 -19 3.38 -19 1 C-18.34 1 -17.68 1 -17 1 C-17 2.98 -17 4.96 -17 7 C-16.01 7 -15.02 7 -14 7 C-13.67 5.68 -13.34 4.36 -13 3 C-6.565 2.505 -6.565 2.505 0 2 C0 1.34 0 0.68 0 0 Z " fill="#565859" transform="translate(206,134)"/>
<path d="M0 0 C2.97 0 5.94 0 9 0 C9 4.29 9 8.58 9 13 C6.03 13 3.06 13 0 13 C0 8.71 0 4.42 0 0 Z " fill="#1B1B1B" transform="translate(712,26)"/>
<path d="M0 0 C1.65 0 3.3 0 5 0 C5 5.28 5 10.56 5 16 C-4.9 16 -14.8 16 -25 16 C-25 26.23 -25 36.46 -25 47 C-25.33 47 -25.66 47 -26 47 C-26 36.44 -26 25.88 -26 15 C-16.76 14.67 -7.52 14.34 2 14 C2 10.37 2 6.74 2 3 C1.34 3 0.68 3 0 3 C0 2.01 0 1.02 0 0 Z " fill="#7C705F" transform="translate(401,44)"/>
<path d="M0 0 C0.87454834 0.00523682 1.74909668 0.01047363 2.65014648 0.01586914 C3.59438477 0.0190918 4.53862305 0.02231445 5.51147461 0.02563477 C6.50469727 0.03401367 7.49791992 0.04239258 8.52124023 0.05102539 C9.51833008 0.05553711 10.51541992 0.06004883 11.54272461 0.06469727 C14.01478872 0.07652532 16.48673541 0.0930069 18.95874023 0.11352539 C18.95874023 0.77352539 18.95874023 1.43352539 18.95874023 2.11352539 C12.35874023 2.11352539 5.75874023 2.11352539 -1.04125977 2.11352539 C-1.04125977 12.67352539 -1.04125977 23.23352539 -1.04125977 34.11352539 C-2.03125977 34.11352539 -3.02125977 34.11352539 -4.04125977 34.11352539 C-3.92330051 29.43194638 -3.79907428 24.75059251 -3.66894531 20.06933594 C-3.62553831 18.47563239 -3.58386758 16.88188059 -3.54394531 15.28808594 C-3.48638169 13.00188631 -3.42264827 10.7159309 -3.35766602 8.42993164 C-3.34095352 7.71325821 -3.32424103 6.99658478 -3.30702209 6.25819397 C-3.12331822 0.17370446 -3.12331822 0.17370446 0 0 Z " fill="#555860" transform="translate(262.041259765625,56.886474609375)"/>
<path d="M0 0 C0.66 0 1.32 0 2 0 C2 0.66 2 1.32 2 2 C4.475 2.495 4.475 2.495 7 3 C6.67 4.32 6.34 5.64 6 7 C2.68955197 8.10348268 0.34493684 7.99444068 -3 7 C-3.33 6.34 -3.66 5.68 -4 5 C-4.66 6.65 -5.32 8.3 -6 10 C-6.66 9.67 -7.32 9.34 -8 9 C-8 8.01 -8 7.02 -8 6 C-9.98 6.99 -9.98 6.99 -12 8 C-12 8.66 -12 9.32 -12 10 C-12.66 10 -13.32 10 -14 10 C-14 7.36 -14 4.72 -14 2 C-11.69 2 -9.38 2 -7 2 C-7 2.66 -7 3.32 -7 4 C-6.34 4 -5.68 4 -5 4 C-5 3.34 -5 2.68 -5 2 C-3.35 2 -1.7 2 0 2 C0 1.34 0 0.68 0 0 Z " fill="#6B6C6A" transform="translate(122,9)"/>
<path d="M0 0 C0.33 0 0.66 0 1 0 C1 1.65 1 3.3 1 5 C2.32 5.33 3.64 5.66 5 6 C5 10.95 5 15.9 5 21 C-7.54 20.67 -20.08 20.34 -33 20 C-33 17.69 -33 15.38 -33 13 C-32.34 13 -31.68 13 -31 13 C-31 14.98 -31 16.96 -31 19 C-20.11 19 -9.22 19 2 19 C2 15.37 2 11.74 2 8 C1.34 8 0.68 8 0 8 C0 5.36 0 2.72 0 0 Z " fill="#726B67" transform="translate(401,92)"/>
<path d="M0 0 C0.33 0 0.66 0 1 0 C1 16.83 1 33.66 1 51 C-1.97 51 -4.94 51 -8 51 C-8 49.02 -8 47.04 -8 45 C-5.36 45 -2.72 45 0 45 C0 30.15 0 15.3 0 0 Z " fill="#250F0D" transform="translate(449,60)"/>
<path d="M0 0 C5.66666667 0 11.33333333 0 17 0 C17 1.65 17 3.3 17 5 C13.16275828 5.90413673 9.62497726 6.10576898 5.6875 6.0625 C4.61886719 6.05347656 3.55023438 6.04445312 2.44921875 6.03515625 C1.64097656 6.02355469 0.83273438 6.01195312 0 6 C0 4.02 0 2.04 0 0 Z " fill="#605F5E" transform="translate(61,190)"/>
<path d="M0 0 C5.61 0 11.22 0 17 0 C17 1.65 17 3.3 17 5 C11.39 5 5.78 5 0 5 C0 3.35 0 1.7 0 0 Z " fill="#0A0A0D" transform="translate(420,79)"/>
<path d="M0 0 C1.134375 0.020625 2.26875 0.04125 3.4375 0.0625 C3.7675 3.0325 4.0975 6.0025 4.4375 9.0625 C2.4575 9.0625 0.4775 9.0625 -1.5625 9.0625 C-1.5625 9.7225 -1.5625 10.3825 -1.5625 11.0625 C-2.2225 11.0625 -2.8825 11.0625 -3.5625 11.0625 C-5.5625 8.0625 -5.5625 8.0625 -5.25 4.4375 C-4.36165227 0.07652022 -4.36165227 0.07652022 0 0 Z " fill="#3C3B3A" transform="translate(103.5625,186.9375)"/>
<path d="M0 0 C11.88 0 23.76 0 36 0 C36 1.98 36 3.96 36 6 C37.32 6 38.64 6 40 6 C40 8.64 40 11.28 40 14 C38.35 14 36.7 14 35 14 C35 9.71 35 5.42 35 1 C23.45 1 11.9 1 0 1 C0 0.67 0 0.34 0 0 Z " fill="#79766D" transform="translate(252,38)"/>
<path d="M0 0 C3.3 0 6.6 0 10 0 C9.67 0.99 9.34 1.98 9 3 C9.66 3 10.32 3 11 3 C11 2.34 11 1.68 11 1 C12.65 0.67 14.3 0.34 16 0 C16 1.65 16 3.3 16 5 C12.32612505 5.85298376 8.9552607 6.10789471 5.1875 6.0625 C3.72376953 6.04896484 3.72376953 6.04896484 2.23046875 6.03515625 C1.12638672 6.01775391 1.12638672 6.01775391 0 6 C0 4.02 0 2.04 0 0 Z " fill="#464442" transform="translate(2,216)"/>
<path d="M0 0 C2.05078125 0.03255208 4.1015625 0.06510417 6.15234375 0.09765625 C6.15234375 3.06765625 6.15234375 6.03765625 6.15234375 9.09765625 C3.18234375 9.09765625 0.21234375 9.09765625 -2.84765625 9.09765625 C-2.9453125 2.9453125 -2.9453125 2.9453125 -2.84765625 1.09765625 C-1.84765625 0.09765625 -1.84765625 0.09765625 0 0 Z " fill="#696969" transform="translate(664.84765625,7.90234375)"/>
<path d="M0 0 C0.33 0 0.66 0 1 0 C1 1.98 1 3.96 1 6 C2.32 6 3.64 6 5 6 C5 8.31 5 10.62 5 13 C5.66 13 6.32 13 7 13 C7 14.98 7 16.96 7 19 C8.32 19 9.64 19 11 19 C11 21.31 11 23.62 11 26 C10.67 26 10.34 26 10 26 C10 24.02 10 22.04 10 20 C9.01 20 8.02 20 7 20 C7.33 22.31 7.66 24.62 8 27 C7.34 27 6.68 27 6 27 C6 22.71 6 18.42 6 14 C4.02 14 2.04 14 0 14 C0 9.38 0 4.76 0 0 Z " fill="#897D6F" transform="translate(329,65)"/>
<path d="M0 0 C5.61 0 11.22 0 17 0 C15.89131683 2.21736634 14.50559539 4.03617993 13 6 C12.67 5.34 12.34 4.68 12 4 C11.34 4.66 10.68 5.32 10 6 C7.87109375 6.23046875 7.87109375 6.23046875 5.4375 6.1875 C4.63183594 6.18105469 3.82617188 6.17460937 2.99609375 6.16796875 C1 6 1 6 0 5 C0 3.35 0 1.7 0 0 Z " fill="#656665" transform="translate(19,216)"/>
<path d="M0 0 C0.66 0 1.32 0 2 0 C2 2.31 2 4.62 2 7 C2.66 7.33 3.32 7.66 4 8 C2.35 8 0.7 8 -1 8 C-1 8.66 -1 9.32 -1 10 C-2.98 10 -4.96 10 -7 10 C-7.04241723 7.66705225 -7.04092937 5.33297433 -7 3 C-6 2 -6 2 -2.9375 1.9375 C-1.4834375 1.9684375 -1.4834375 1.9684375 0 2 C0 1.34 0 0.68 0 0 Z " fill="#40403F" transform="translate(343,134)"/>
<path d="M0 0 C0.33 0 0.66 0 1 0 C1.33 4.95 1.66 9.9 2 15 C-4.6 15 -11.2 15 -18 15 C-18 12.36 -18 9.72 -18 7 C-17.01 7 -16.02 7 -15 7 C-15 8.98 -15 10.96 -15 13 C-10.05 13 -5.1 13 0 13 C0 8.71 0 4.42 0 0 Z " fill="#777C7A" transform="translate(349,98)"/>
<path d="M0 0 C4.62 0 9.24 0 14 0 C14 1.65 14 3.3 14 5 C9.38 5 4.76 5 0 5 C0 3.35 0 1.7 0 0 Z " fill="#0B0A0A" transform="translate(334,105)"/>
<path d="M0 0 C4.62 0 9.24 0 14 0 C14 1.65 14 3.3 14 5 C9.38 5 4.76 5 0 5 C0 3.35 0 1.7 0 0 Z " fill="#100E0E" transform="translate(423,60)"/>
<path d="M0 0 C0.33 0 0.66 0 1 0 C1 4.62 1 9.24 1 14 C-11.21 14.33 -23.42 14.66 -36 15 C-36 12.36 -36 9.72 -36 7 C-35.01 7 -34.02 7 -33 7 C-33 8.98 -33 10.96 -33 13 C-22.11 13 -11.22 13 0 13 C0 8.71 0 4.42 0 0 Z " fill="#5E6B72" transform="translate(289,98)"/>
<path d="M0 0 C5.28 0 10.56 0 16 0 C16 1.65 16 3.3 16 5 C15.67 3.68 15.34 2.36 15 1 C14.34 1 13.68 1 13 1 C13 2.65 13 4.3 13 6 C12.34 6 11.68 6 11 6 C11 4.68 11 3.36 11 2 C10.01 2 9.02 2 8 2 C7.67 3.32 7.34 4.64 7 6 C4.125 6.125 4.125 6.125 1 6 C0.34 5.34 -0.32 4.68 -1 4 C-0.67 2.68 -0.34 1.36 0 0 Z " fill="#292B2D" transform="translate(8,203)"/>
<path d="M0 0 C3.63 0 7.26 0 11 0 C11 2.31 11 4.62 11 7 C7.37 7 3.74 7 0 7 C0.33 6.34 0.66 5.68 1 5 C1.10540926 2.78918149 1.10540926 2.78918149 0 0 Z " fill="#383838" transform="translate(2,10)"/>
<path d="M0 0 C2.97 0 5.94 0 9 0 C9.625 2.875 9.625 2.875 10 6 C8 8 8 8 5.8359375 8.1953125 C4.61777344 8.16050781 4.61777344 8.16050781 3.375 8.125 C2.55773437 8.10695312 1.74046875 8.08890625 0.8984375 8.0703125 C0.27195313 8.04710937 -0.35453125 8.02390625 -1 8 C-0.690625 7.401875 -0.38125 6.80375 -0.0625 6.1875 C1.10209704 3.91043228 1.10209704 3.91043228 2 1 C1.34 0.67 0.68 0.34 0 0 Z " fill="#36393B" transform="translate(134,201)"/>
<path d="M0 0 C1.32 0 2.64 0 4 0 C4 0.66 4 1.32 4 2 C3.34 2 2.68 2 2 2 C2 6.29 2 10.58 2 15 C-4.27 15 -10.54 15 -17 15 C-17 12.69 -17 10.38 -17 8 C-16.34 8 -15.68 8 -15 8 C-15 9.98 -15 11.96 -15 14 C-10.05 14 -5.1 14 0 14 C0 9.38 0 4.76 0 0 Z " fill="#69646A" transform="translate(325,97)"/>
<path d="M0 0 C0.66 0 1.32 0 2 0 C2 0.66 2 1.32 2 2 C3.65 2 5.3 2 7 2 C7 1.34 7 0.68 7 0 C7.66 0 8.32 0 9 0 C9.33 2.64 9.66 5.28 10 8 C8.52093108 8.02689216 7.04172517 8.04634621 5.5625 8.0625 C4.32693359 8.07990234 4.32693359 8.07990234 3.06640625 8.09765625 C1 8 1 8 0 7 C-0.04092937 4.66702567 -0.04241723 2.33294775 0 0 Z " fill="#3B3C3C" transform="translate(50,227)"/>
<path d="M0 0 C1.32 0.33 2.64 0.66 4 1 C3.67 18.49 3.34 35.98 3 54 C2.67 54 2.34 54 2 54 C2 37.17 2 20.34 2 3 C1.34 3 0.68 3 0 3 C0 2.01 0 1.02 0 0 Z " fill="#8E7265" transform="translate(449,57)"/>
<path d="M0 0 C3.63 0 7.26 0 11 0 C11 1.98 11 3.96 11 6 C7.37 6 3.74 6 0 6 C0 4.02 0 2.04 0 0 Z " fill="#5F574D" transform="translate(31,203)"/>
<path d="M0 0 C1.5625 1.125 1.5625 1.125 3 3 C2.875 6.0625 2.875 6.0625 2 9 C1.01 9.66 0.02 10.32 -1 11 C-1.33 10.34 -1.66 9.68 -2 9 C-4.52733235 8.34444881 -4.52733235 8.34444881 -7 8 C-7 6.35 -7 4.7 -7 3 C-2.125 3.875 -2.125 3.875 -1 5 C-0.67 3.35 -0.34 1.7 0 0 Z " fill="#3A3B3A" transform="translate(158,187)"/>
<path d="M0 0 C5.28 0 10.56 0 16 0 C16 0.99 16 1.98 16 3 C11.38 3 6.76 3 2 3 C2 4.65 2 6.3 2 8 C1.34 8 0.68 8 0 8 C0 5.36 0 2.72 0 0 Z " fill="#656466" transform="translate(421,57)"/>
<path d="M0 0 C2.97 0.33 5.94 0.66 9 1 C10 5.875 10 5.875 10 7 C8.52093108 7.02689216 7.04172517 7.04634621 5.5625 7.0625 C4.32693359 7.07990234 4.32693359 7.07990234 3.06640625 7.09765625 C1 7 1 7 0 6 C-0.04080783 4.00041636 -0.04254356 1.99954746 0 0 Z " fill="#464646" transform="translate(86,228)"/>
<path d="M0 0 C1.1446875 0.2475 1.1446875 0.2475 2.3125 0.5 C5.03392445 1.00631153 6.40067115 0.74266539 9 0 C10 1 10 1 10.0625 3.5625 C10.041875 4.366875 10.02125 5.17125 10 6 C9.0925 5.814375 8.185 5.62875 7.25 5.4375 C4.31685676 5.04265379 2.7355343 5.05308428 0 6 C-0.38218767 4.34385343 -0.71395102 2.67542976 -1 1 C-0.67 0.67 -0.34 0.34 0 0 Z " fill="#5C5C5B" transform="translate(74,216)"/>
<path d="M0 0 C1.65 0 3.3 0 5 0 C5 1.65 5 3.3 5 5 C3.68 5 2.36 5 1 5 C1 9.62 1 14.24 1 19 C-3.95 19 -8.9 19 -14 19 C-14 18.67 -14 18.34 -14 18 C-9.38 18 -4.76 18 0 18 C0 12.06 0 6.12 0 0 Z " fill="#16161A" transform="translate(324,92)"/>
<path d="M0 0 C1.23556641 0.01740234 1.23556641 0.01740234 2.49609375 0.03515625 C3.32238281 0.04417969 4.14867187 0.05320313 5 0.0625 C5.63808594 0.07410156 6.27617187 0.08570313 6.93359375 0.09765625 C7.26359375 1.74765625 7.59359375 3.39765625 7.93359375 5.09765625 C4.63359375 5.09765625 1.33359375 5.09765625 -2.06640625 5.09765625 C-2.39640625 3.77765625 -2.72640625 2.45765625 -3.06640625 1.09765625 C-2.06640625 0.09765625 -2.06640625 0.09765625 0 0 Z " fill="#3A3939" transform="translate(136.06640625,189.90234375)"/>
<path d="M0 0 C0.78375 0.185625 1.5675 0.37125 2.375 0.5625 C4.97089775 1.25962266 4.97089775 1.25962266 7 0 C7.33 0.66 7.66 1.32 8 2 C8.66 1.34 9.32 0.68 10 0 C9.47731534 2.76276177 8.89130413 5.3260876 8 8 C7.01 8 6.02 8 5 8 C4.67 7.34 4.34 6.68 4 6 C2.68 6.33 1.36 6.66 0 7 C0 4.69 0 2.38 0 0 Z " fill="#656D70" transform="translate(168,11)"/>
<path d="M0 0 C1.98 0 3.96 0 6 0 C6 4.62 6 9.24 6 14 C5.67 14 5.34 14 5 14 C5 12.35 5 10.7 5 9 C3.68 9 2.36 9 1 9 C0.67 6.03 0.34 3.06 0 0 Z " fill="#606672" transform="translate(300,91)"/>
<path d="M0 0 C2.31 0 4.62 0 7 0 C7 0.66 7 1.32 7 2 C7.66 2 8.32 2 9 2 C8.67 3.98 8.34 5.96 8 8 C7.34 7.67 6.68 7.34 6 7 C6 6.01 6 5.02 6 4 C4.02 4.99 4.02 4.99 2 6 C2 6.66 2 7.32 2 8 C1.34 8 0.68 8 0 8 C0 5.36 0 2.72 0 0 Z " fill="#5B5E5E" transform="translate(108,11)"/>
<path d="M0 0 C0.99 0.33 1.98 0.66 3 1 C3 1.66 3 2.32 3 3 C2.01 3 1.02 3 0 3 C0 3.66 0 4.32 0 5 C0.99 5.33 1.98 5.66 3 6 C-0.63 6 -4.26 6 -8 6 C-8 4.35 -8 2.7 -8 1 C-6.865625 1.020625 -5.73125 1.04125 -4.5625 1.0625 C-1.18424326 1.41577477 -1.18424326 1.41577477 0 0 Z " fill="#6D6E6C" transform="translate(39,229)"/>
<path d="M0 0 C0.33 0.66 0.66 1.32 1 2 C1.99 2.33 2.98 2.66 4 3 C3.34 3 2.68 3 2 3 C2 4.32 2 5.64 2 7 C2.66 7.33 3.32 7.66 4 8 C0.37 8 -3.26 8 -7 8 C-6.34 7.67 -5.68 7.34 -5 7 C-5.33 5.35 -5.66 3.7 -6 2 C-4.02 2 -2.04 2 0 2 C0 1.34 0 0.68 0 0 Z " fill="#3F4141" transform="translate(355,161)"/>
<path d="M0 0 C-0.33 1.65 -0.66 3.3 -1 5 C-0.34 5.33 0.32 5.66 1 6 C0.113125 5.814375 -0.77375 5.62875 -1.6875 5.4375 C-4.85178811 5.01957516 -6.94839642 5.19222258 -10 6 C-10 3 -10 3 -9 0 C-3.375 -1.125 -3.375 -1.125 0 0 Z " fill="#565757" transform="translate(358,136)"/>
<path d="M0 0 C2.64 0 5.28 0 8 0 C8.33 1.65 8.66 3.3 9 5 C7.02253397 5.73080266 5.01927511 6.39421747 3 7 C2.34 6.67 1.68 6.34 1 6 C0.375 2.9375 0.375 2.9375 0 0 Z " fill="#6C6E6D" transform="translate(86,11)"/>
<path d="M0 0 C2.53730112 0 4.52589282 0.36152073 7 1 C7 2.65 7 4.3 7 6 C5.741875 6.020625 4.48375 6.04125 3.1875 6.0625 C2.47980469 6.07410156 1.77210937 6.08570313 1.04296875 6.09765625 C-1 6 -1 6 -4 5 C-3.67 3.68 -3.34 2.36 -3 1 C-2.34 1.33 -1.68 1.66 -1 2 C-0.67 1.34 -0.34 0.68 0 0 Z " fill="#66615C" transform="translate(95,216)"/>
<path d="M0 0 C-0.33 0.99 -0.66 1.98 -1 3 C-1.99 3 -2.98 3 -4 3 C-4.33 4.65 -4.66 6.3 -5 8 C-5.33 7.34 -5.66 6.68 -6 6 C-7.65 6 -9.3 6 -11 6 C-11 4.35 -11 2.7 -11 1 C-7.26513121 0.4254048 -3.78706732 0 0 0 Z " fill="#5C5A56" transform="translate(192,189)"/>
<path d="M0 0 C2.97 0.495 2.97 0.495 6 1 C6 2.32 6 3.64 6 5 C6.66 5 7.32 5 8 5 C8.33 3.68 8.66 2.36 9 1 C9 2.65 9 4.3 9 6 C5.7 6 2.4 6 -1 6 C-1 3 -1 3 0 0 Z " fill="#5E5E5D" transform="translate(9,189)"/>
<path d="M0 0 C3.3 0 6.6 0 10 0 C10 1.65 10 3.3 10 5 C9.67 3.68 9.34 2.36 9 1 C8.34 1 7.68 1 7 1 C7 2.32 7 3.64 7 5 C4.69 5 2.38 5 0 5 C0 3.35 0 1.7 0 0 Z " fill="#636566" transform="translate(420,137)"/>
<path d="M0 0 C0.66 0 1.32 0 2 0 C2.33 2.64 2.66 5.28 3 8 C0.03 7.67 -2.94 7.34 -6 7 C-5.01 6.67 -4.02 6.34 -3 6 C-3 5.01 -3 4.02 -3 3 C-3.99 2.67 -4.98 2.34 -6 2 C-4.02 2 -2.04 2 0 2 C0 1.34 0 0.68 0 0 Z " fill="#434241" transform="translate(206,134)"/>
<path d="M0 0 C0.33 0 0.66 0 1 0 C1 1.65 1 3.3 1 5 C2.98 5.495 2.98 5.495 5 6 C5 10.95 5 15.9 5 21 C4.34 20.67 3.68 20.34 3 20 C3 15.71 3 11.42 3 7 C2.01 7 1.02 7 0 7 C0 4.69 0 2.38 0 0 Z " fill="#66524B" transform="translate(401,92)"/>
<path d="M0 0 C2.64 0 5.28 0 8 0 C8 1.65 8 3.3 8 5 C5.36 5 2.72 5 0 5 C0 3.35 0 1.7 0 0 Z " fill="#0A0A0A" transform="translate(412,105)"/>
<path d="M0 0 C0.33 0 0.66 0 1 0 C1 2.64 1 5.28 1 8 C-0.98 8 -2.96 8 -5 8 C-5.33 6.35 -5.66 4.7 -6 3 C-4.02 2.67 -2.04 2.34 0 2 C0 1.34 0 0.68 0 0 Z " fill="#6D685F" transform="translate(62,9)"/>
<path d="M0 0 C3.3 0 6.6 0 10 0 C10 1.98 10 3.96 10 6 C9.67 4.68 9.34 3.36 9 2 C8.34 2 7.68 2 7 2 C7 3.32 7 4.64 7 6 C6.34 6 5.68 6 5 6 C5 5.01 5 4.02 5 3 C3.68 2.67 2.36 2.34 1 2 C0.67 3.32 0.34 4.64 0 6 C0 4.02 0 2.04 0 0 Z " fill="#656765" transform="translate(14,229)"/>
<path d="M0 0 C2.64 0 5.28 0 8 0 C7.01 0.495 7.01 0.495 6 1 C6 2.65 6 4.3 6 6 C4.02 6 2.04 6 0 6 C0 4 0 2 0 0 Z " fill="#68615E" transform="translate(48,11)"/>
<path d="M0 0 C0.33 0 0.66 0 1 0 C1 1.98 1 3.96 1 6 C2.32 6 3.64 6 5 6 C5 8.31 5 10.62 5 13 C3.35 13 1.7 13 0 13 C0 8.71 0 4.42 0 0 Z " fill="#756159" transform="translate(329,65)"/>
<path d="M0 0 C1.98 0 3.96 0 6 0 C6 1.98 6 3.96 6 6 C4.02 6 2.04 6 0 6 C0 4.02 0 2.04 0 0 Z " fill="#060606" transform="translate(664,10)"/>
<path d="M0 0 C6.15234375 -0.09765625 6.15234375 -0.09765625 8 0 C9 1 9 1 9.0625 3.5625 C9.041875 4.366875 9.02125 5.17125 9 6 C6.69 5.67 4.38 5.34 2 5 C2 3.68 2 2.36 2 1 C1.34 0.67 0.68 0.34 0 0 Z " fill="#686C6E" transform="translate(129,11)"/>
<path d="M0 0 C0.66 0 1.32 0 2 0 C2 0.66 2 1.32 2 2 C2.66 2 3.32 2 4 2 C4 1.34 4 0.68 4 0 C4.66 0 5.32 0 6 0 C6 2.31 6 4.62 6 7 C5.34 7 4.68 7 4 7 C4 6.34 4 5.68 4 5 C3.34 5 2.68 5 2 5 C2 5.66 2 6.32 2 7 C1.34 7 0.68 7 0 7 C0 4.69 0 2.38 0 0 Z " fill="#666969" transform="translate(413,135)"/>
<path d="M0 0 C1.32 0 2.64 0 4 0 C3.814375 0.5775 3.62875 1.155 3.4375 1.75 C2.95976454 4.20692525 3.24270636 5.64397534 4 8 C2.35 8 0.7 8 -1 8 C-1.125 2.25 -1.125 2.25 0 0 Z " fill="#666A6A" transform="translate(492,136)"/>
<path d="M0 0 C1.65 0 3.3 0 5 0 C5 2.64 5 5.28 5 8 C3.35 8 1.7 8 0 8 C0 5.36 0 2.72 0 0 Z " fill="#51525A" transform="translate(247,92)"/>
<path d="M0 0 C3.66666667 0 7.33333333 0 11 0 C11 1.65 11 3.3 11 5 C6.25 5.125 6.25 5.125 4 4 C4 3.01 4 2.02 4 1 C3.01 1 2.02 1 1 1 C0.67 1.99 0.34 2.98 0 4 C0 2.68 0 1.36 0 0 Z " fill="#767A78" transform="translate(109,190)"/>
<path d="M0 0 C2.92879371 0.62759865 5.36095629 1.58622659 8 3 C7.34 4.65 6.68 6.3 6 8 C5.67 7.01 5.34 6.02 5 5 C3.68 5 2.36 5 1 5 C0.67 5.66 0.34 6.32 0 7 C0 4.69 0 2.38 0 0 Z " fill="#767571" transform="translate(67,9)"/>
<path d="M0 0 C0.66 0 1.32 0 2 0 C2 2.64 2 5.28 2 8 C0.35 7.67 -1.3 7.34 -3 7 C-2.67 5.35 -2.34 3.7 -2 2 C-1.34 2 -0.68 2 0 2 C0 1.34 0 0.68 0 0 Z " fill="#61615D" transform="translate(106,227)"/>
<path d="M0 0 C2.475 0.495 2.475 0.495 5 1 C4.67 2.65 4.34 4.3 4 6 C3.34 6 2.68 6 2 6 C2 6.66 2 7.32 2 8 C1.34 8 0.68 8 0 8 C0 5.36 0 2.72 0 0 Z " fill="#5E6361" transform="translate(85,216)"/>
<path d="M0 0 C1.32 0 2.64 0 4 0 C4 2.64 4 5.28 4 8 C2.68 8 1.36 8 0 8 C0 5.36 0 2.72 0 0 Z " fill="#605D65" transform="translate(443,44)"/>
<path d="M0 0 C1.65 0 3.3 0 5 0 C5 1.65 5 3.3 5 5 C3.35 5.66 1.7 6.32 0 7 C0 4.69 0 2.38 0 0 Z " fill="#606463" transform="translate(73,203)"/>
<path d="M0 0 C1.98 0 3.96 0 6 0 C6 1.65 6 3.3 6 5 C4.02 5.33 2.04 5.66 0 6 C0 4.02 0 2.04 0 0 Z " fill="#0A0A0A" transform="translate(348,92)"/>
<path d="M0 0 C2.475 0.495 2.475 0.495 5 1 C4.67 2.65 4.34 4.3 4 6 C2.68 6.33 1.36 6.66 0 7 C0 4.69 0 2.38 0 0 Z " fill="#616664" transform="translate(91,203)"/>
<path d="M0 0 C3.3 0 6.6 0 10 0 C10 1.65 10 3.3 10 5 C9.67 3.68 9.34 2.36 9 1 C8.34 1 7.68 1 7 1 C7 2.65 7 4.3 7 6 C6.34 6 5.68 6 5 6 C5 4.68 5 3.36 5 2 C4.01 2 3.02 2 2 2 C1.01 3.485 1.01 3.485 0 5 C0 3.35 0 1.7 0 0 Z " fill="#747875" transform="translate(14,203)"/>
<path d="M0 0 C0.33 0 0.66 0 1 0 C1 2.64 1 5.28 1 8 C-0.65 7.67 -2.3 7.34 -4 7 C-3.67 5.35 -3.34 3.7 -3 2 C-2.01 2 -1.02 2 0 2 C0 1.34 0 0.68 0 0 Z " fill="#696B6B" transform="translate(185,9)"/>
<path d="M0 0 C0.33 0.66 0.66 1.32 1 2 C2.32 1.67 3.64 1.34 5 1 C4.67 1.99 4.34 2.98 4 4 C4.66 4 5.32 4 6 4 C6 4.99 6 5.98 6 7 C4.33388095 7.042721 2.66617115 7.04063832 1 7 C0 6 0 6 -0.0625 2.9375 C-0.041875 1.968125 -0.02125 0.99875 0 0 Z " fill="#57514C" transform="translate(0,228)"/>
<path d="M0 0 C0.33 0.66 0.66 1.32 1 2 C3.02463255 2.65213292 3.02463255 2.65213292 5 3 C4.67 4.65 4.34 6.3 4 8 C2.68 7.67 1.36 7.34 0 7 C0 4.69 0 2.38 0 0 Z " fill="#606564" transform="translate(109,201)"/>
<path d="M0 0 C1.32 0 2.64 0 4 0 C4 1.98 4 3.96 4 6 C0.37 6 -3.26 6 -7 6 C-6.67 5.34 -6.34 4.68 -6 4 C-4.02 4 -2.04 4 0 4 C0 2.68 0 1.36 0 0 Z " fill="#0C0C0C" transform="translate(9,11)"/>
<path d="M0 0 C0.33 0 0.66 0 1 0 C1 2.64 1 5.28 1 8 C-0.65 7.67 -2.3 7.34 -4 7 C-3.6875 5.0625 -3.6875 5.0625 -3 3 C-2.01 2.67 -1.02 2.34 0 2 C0 1.34 0 0.68 0 0 Z " fill="#646461" transform="translate(41,214)"/>
<path d="M0 0 C-1.10868317 2.21736634 -2.49440461 4.03617993 -4 6 C-4.33 5.34 -4.66 4.68 -5 4 C-6.32 4.33 -7.64 4.66 -9 5 C-9 3.68 -9 2.36 -9 1 C-5.92677456 0.08941469 -3.19902639 -0.08886184 0 0 Z " fill="#535452" transform="translate(36,216)"/>
<path d="M0 0 C1.65 0 3.3 0 5 0 C5 1.65 5 3.3 5 5 C4.67 3.68 4.34 2.36 4 1 C3.34 1 2.68 1 2 1 C2 2.65 2 4.3 2 6 C-0.64 6 -3.28 6 -6 6 C-6.33 5.34 -6.66 4.68 -7 4 C-5.02 4 -3.04 4 -1 4 C-0.67 2.68 -0.34 1.36 0 0 Z " fill="#4D5255" transform="translate(198,190)"/>
<path d="M0 0 C0.33 0.66 0.66 1.32 1 2 C2.65 2 4.3 2 6 2 C6 3.65 6 5.3 6 7 C5.67 6.34 5.34 5.68 5 5 C4.34 5 3.68 5 3 5 C3 5.66 3 6.32 3 7 C2.01 7 1.02 7 0 7 C0 4.69 0 2.38 0 0 Z " fill="#6B6A65" transform="translate(0,188)"/>
<path d="M0 0 C1.65 0 3.3 0 5 0 C4.67 1.65 4.34 3.3 4 5 C3.34 5 2.68 5 2 5 C2 5.66 2 6.32 2 7 C1.34 7 0.68 7 0 7 C0 4.69 0 2.38 0 0 Z " fill="#616768" transform="translate(276,137)"/>
<path d="M0 0 C0.99 0 1.98 0 3 0 C3 2.97 3 5.94 3 9 C1.68 8.67 0.36 8.34 -1 8 C-0.67 5.36 -0.34 2.72 0 0 Z " fill="#5D5258" transform="translate(362,91)"/>
<path d="M0 0 C2.0625 0.4375 2.0625 0.4375 4 1 C4 2.65 4 4.3 4 6 C2.35 6 0.7 6 -1 6 C-1.042721 4.33388095 -1.04063832 2.66617115 -1 1 C-0.67 0.67 -0.34 0.34 0 0 Z " fill="#616260" transform="translate(110,229)"/>
<path d="M0 0 C2.0625 0.4375 2.0625 0.4375 4 1 C4 2.65 4 4.3 4 6 C2.35 6 0.7 6 -1 6 C-1.042721 4.33388095 -1.04063832 2.66617115 -1 1 C-0.67 0.67 -0.34 0.34 0 0 Z " fill="#616260" transform="translate(128,229)"/>
<path d="M0 0 C0.99 0.33 1.98 0.66 3 1 C2.67 2.65 2.34 4.3 2 6 C0.35 5.67 -1.3 5.34 -3 5 C-2.625 3.0625 -2.625 3.0625 -2 1 C-1.34 0.67 -0.68 0.34 0 0 Z " fill="#4A4A4A" transform="translate(15,216)"/>
<path d="M0 0 C0.66 0 1.32 0 2 0 C2.66 2.31 3.32 4.62 4 7 C2.02 7 0.04 7 -2 7 C-1.125 1.125 -1.125 1.125 0 0 Z " fill="#6B6E6C" transform="translate(57,201)"/>
<path d="M0 0 C1.98 0.495 1.98 0.495 4 1 C4 2.65 4 4.3 4 6 C2.35 6 0.7 6 -1 6 C-0.67 4.02 -0.34 2.04 0 0 Z " fill="#656463" transform="translate(68,229)"/>
<path d="M0 0 C1.98 0.495 1.98 0.495 4 1 C3.67 2.65 3.34 4.3 3 6 C1.68 5.67 0.36 5.34 -1 5 C-0.67 3.35 -0.34 1.7 0 0 Z " fill="#565A5C" transform="translate(68,216)"/>
<path d="M0 0 C1.98 0.495 1.98 0.495 4 1 C3.67 2.65 3.34 4.3 3 6 C1.68 5.67 0.36 5.34 -1 5 C-0.67 3.35 -0.34 1.7 0 0 Z " fill="#585957" transform="translate(116,203)"/>
<path d="M0 0 C0.33 0 0.66 0 1 0 C1 2.64 1 5.28 1 8 C-0.65 7.67 -2.3 7.34 -4 7 C-3.67 5.68 -3.34 4.36 -3 3 C-2.01 3 -1.02 3 0 3 C0 2.01 0 1.02 0 0 Z " fill="#6D6961" transform="translate(89,187)"/>
<path d="M0 0 C1.32 0 2.64 0 4 0 C4.33 1.98 4.66 3.96 5 6 C3.35 6.33 1.7 6.66 0 7 C0 4.69 0 2.38 0 0 Z " fill="#757572" transform="translate(199,137)"/>
<path d="M0 0 C1.98 0.495 1.98 0.495 4 1 C3.67 2.65 3.34 4.3 3 6 C1.68 5.67 0.36 5.34 -1 5 C-0.67 3.35 -0.34 1.7 0 0 Z " fill="#616362" transform="translate(25,11)"/>
<path d="M0 0 C1.98 0.495 1.98 0.495 4 1 C3.67 2.65 3.34 4.3 3 6 C1.68 5.67 0.36 5.34 -1 5 C-0.67 3.35 -0.34 1.7 0 0 Z " fill="#5F6364" transform="translate(76,11)"/>
<path d="M0 0 C0.66 0 1.32 0 2 0 C2.33 0.99 2.66 1.98 3 3 C3.66 3.33 4.32 3.66 5 4 C5 5.32 5 6.64 5 8 C3.35 8 1.7 8 0 8 C0 5.36 0 2.72 0 0 Z " fill="#686D6D" transform="translate(73,227)"/>
<path d="M0 0 C0.99 0 1.98 0 3 0 C3.33 2.64 3.66 5.28 4 8 C2.35 8 0.7 8 -1 8 C-1 7.34 -1 6.68 -1 6 C-0.34 6 0.32 6 1 6 C1 4.68 1 3.36 1 2 C0.34 1.67 -0.32 1.34 -1 1 C-0.67 0.67 -0.34 0.34 0 0 Z " fill="#5E5F5B" transform="translate(128,201)"/>
<path d="M0 0 C0.66 0 1.32 0 2 0 C2.33 0.99 2.66 1.98 3 3 C3.66 3.33 4.32 3.66 5 4 C5 4.99 5 5.98 5 7 C2 8 2 8 0 8 C0 5.36 0 2.72 0 0 Z " fill="#6A6E6E" transform="translate(103,200)"/>
<path d="M0 0 C0.99 0 1.98 0 3 0 C3 3.63 3 7.26 3 11 C2.01 10.67 1.02 10.34 0 10 C0 6.7 0 3.4 0 0 Z " fill="#686763" transform="translate(361,160)"/>
<path d="M0 0 C0.99 0 1.98 0 3 0 C3 3.63 3 7.26 3 11 C2.01 11 1.02 11 0 11 C0 7.37 0 3.74 0 0 Z " fill="#5F5D59" transform="translate(331,160)"/>
<path d="M0 0 C2.475 0.495 2.475 0.495 5 1 C5 2.98 5 4.96 5 7 C3.33333333 7 1.66666667 7 0 7 C0 4.69 0 2.38 0 0 Z " fill="#7A7B79" transform="translate(324,135)"/>
<path d="M0 0 C1.32 0.33 2.64 0.66 4 1 C4 2.65 4 4.3 4 6 C2.02 6 0.04 6 -2 6 C-1.34 5.67 -0.68 5.34 0 5 C0 3.35 0 1.7 0 0 Z " fill="#6E7370" transform="translate(196,11)"/>
<path d="M0 0 C1.32 0 2.64 0 4 0 C4 1.98 4 3.96 4 6 C2.68 6 1.36 6 0 6 C-0.38218767 4.34385343 -0.71395102 2.67542976 -1 1 C-0.67 0.67 -0.34 0.34 0 0 Z " fill="#656663" transform="translate(68,203)"/>
<path d="M0 0 C1.98 0.495 1.98 0.495 4 1 C4 2.65 4 4.3 4 6 C2.35 5.67 0.7 5.34 -1 5 C-0.67 3.35 -0.34 1.7 0 0 Z " fill="#646562" transform="translate(331,136)"/>
<path d="M0 0 C1.98 0.495 1.98 0.495 4 1 C4 2.65 4 4.3 4 6 C2.35 5.67 0.7 5.34 -1 5 C-0.67 3.35 -0.34 1.7 0 0 Z " fill="#676864" transform="translate(92,229)"/>
<path d="M0 0 C0.99 0.33 1.98 0.66 3 1 C3 2.65 3 4.3 3 6 C1.35 5.67 -0.3 5.34 -2 5 C-1.34 3.35 -0.68 1.7 0 0 Z " fill="#666665" transform="translate(27,229)"/>
<path d="M0 0 C0.99 0 1.98 0 3 0 C3 0.66 3 1.32 3 2 C2.34 2 1.68 2 1 2 C1 2.66 1 3.32 1 4 C1.66 4.33 2.32 4.66 3 5 C2.34 5 1.68 5 1 5 C1 6.32 1 7.64 1 9 C0.34 9 -0.32 9 -1 9 C-1.80967438 6.08517222 -2.21845993 4.53886783 -1.0625 1.6875 C-0.711875 1.130625 -0.36125 0.57375 0 0 Z " fill="#626362" transform="translate(105,213)"/>
<path d="M0 0 C1.98 0.495 1.98 0.495 4 1 C3.814375 1.598125 3.62875 2.19625 3.4375 2.8125 C2.77906313 5.16408762 2.77906313 5.16408762 4 8 C2.35 8 0.7 8 -1 8 C-0.690625 7.401875 -0.38125 6.80375 -0.0625 6.1875 C1.10209704 3.91043228 1.10209704 3.91043228 2 1 C1.34 0.67 0.68 0.34 0 0 Z " fill="#6A6A67" transform="translate(134,201)"/>
<path d="M0 0 C1.32 0 2.64 0 4 0 C4 1.65 4 3.3 4 5 C2.35 4.67 0.7 4.34 -1 4 C-0.67 2.68 -0.34 1.36 0 0 Z " fill="#5A5C5C" transform="translate(56,190)"/>
<path d="M0 0 C1.32 0 2.64 0 4 0 C4 1.65 4 3.3 4 5 C2.35 4.67 0.7 4.34 -1 4 C-0.67 2.68 -0.34 1.36 0 0 Z " fill="#5B5D5C" transform="translate(498,137)"/>
<path d="M0 0 C1.32 0 2.64 0 4 0 C4 1.65 4 3.3 4 5 C2.35 4.67 0.7 4.34 -1 4 C-0.67 2.68 -0.34 1.36 0 0 Z " fill="#595C5C" transform="translate(486,137)"/>
<path d="M0 0 C1.4606285 2.64738916 2 3.89448334 2 7 C0.35 7 -1.3 7 -3 7 C-3 5.02 -3 3.04 -3 1 C-2.01 1.33 -1.02 1.66 0 2 C0 1.34 0 0.68 0 0 Z " fill="#737A7C" transform="translate(339,137)"/>
<path d="M0 0 C0.66 0 1.32 0 2 0 C2 0.99 2 1.98 2 3 C2.66 3 3.32 3 4 3 C4.33 2.01 4.66 1.02 5 0 C5 2.31 5 4.62 5 7 C4.67 6.01 4.34 5.02 4 4 C3.34 4 2.68 4 2 4 C2 4.99 2 5.98 2 7 C1.34 7 0.68 7 0 7 C0 4.69 0 2.38 0 0 Z " fill="#757E7E" transform="translate(258,135)"/>
<path d="M0 0 C0.66 0.66 1.32 1.32 2 2 C2.66 1.34 3.32 0.68 4 0 C3.47731534 2.76276177 2.89130413 5.3260876 2 8 C1.01 8 0.02 8 -1 8 C-0.67 5.36 -0.34 2.72 0 0 Z " fill="#5C6263" transform="translate(174,11)"/>
<path d="M0 0 C1.98 0.495 1.98 0.495 4 1 C4 2.65 4 4.3 4 6 C2.35 5.67 0.7 5.34 -1 5 C-0.67 3.35 -0.34 1.7 0 0 Z " fill="#777572" transform="translate(188,11)"/>
<path d="M0 0 C1.32 0.33 2.64 0.66 4 1 C4 2.65 4 4.3 4 6 C2.68 6 1.36 6 0 6 C0 4.02 0 2.04 0 0 Z " fill="#737774" transform="translate(153,11)"/>
<path d="M0 0 C0.99 0.33 1.98 0.66 3 1 C3 2.65 3 4.3 3 6 C1.35 5.67 -0.3 5.34 -2 5 C-1.125 1.125 -1.125 1.125 0 0 Z " fill="#646769" transform="translate(9,229)"/>
<path d="M0 0 C0.99 0.33 1.98 0.66 3 1 C3 2.65 3 4.3 3 6 C1.35 5.67 -0.3 5.34 -2 5 C-1.125 1.125 -1.125 1.125 0 0 Z " fill="#696A69" transform="translate(266,136)"/>
<path d="M0 0 C0.99 0 1.98 0 3 0 C4.125 3.75 4.125 3.75 3 6 C1.68 5.67 0.36 5.34 -1 5 C-0.67 3.35 -0.34 1.7 0 0 Z " fill="#666865" transform="translate(361,136)"/>
<path d="M0 0 C0.66 0 1.32 0 2 0 C2 0.66 2 1.32 2 2 C2.66 2 3.32 2 4 2 C4 2.66 4 3.32 4 4 C3.34 4 2.68 4 2 4 C2 4.99 2 5.98 2 7 C2.66 7.33 3.32 7.66 4 8 C2.68 7.67 1.36 7.34 0 7 C0 4.69 0 2.38 0 0 Z " fill="#68665D" transform="translate(122,227)"/>
<path d="M0 0 C1.98 0.495 1.98 0.495 4 1 C4 1.66 4 2.32 4 3 C3.01 3 2.02 3 1 3 C1 3.66 1 4.32 1 5 C1.99 5.33 2.98 5.66 4 6 C2.35 5.67 0.7 5.34 -1 5 C-0.67 3.35 -0.34 1.7 0 0 Z " fill="#6E7373" transform="translate(62,216)"/>
<path d="M0 0 C1.32 0 2.64 0 4 0 C4 1.65 4 3.3 4 5 C1.69 5 -0.62 5 -3 5 C-2.505 4.360625 -2.01 3.72125 -1.5 3.0625 C0.09802862 1.29025661 0.09802862 1.29025661 0 0 Z " fill="#71706E" transform="translate(32,190)"/>
<path d="M0 0 C2.475 0.495 2.475 0.495 5 1 C5 2.32 5 3.64 5 5 C3.35 5 1.7 5 0 5 C0 3.35 0 1.7 0 0 Z " fill="#6C6D6C" transform="translate(139,190)"/>
<path d="M0 0 C0.99 0 1.98 0 3 0 C3 2.31 3 4.62 3 7 C2.01 7 1.02 7 0 7 C0 4.69 0 2.38 0 0 Z " fill="#564E56" transform="translate(288,45)"/>
<path d="M0 0 C0.66 0 1.32 0 2 0 C2.33 2.64 2.66 5.28 3 8 C1.68 7.67 0.36 7.34 -1 7 C-0.67 4.69 -0.34 2.38 0 0 Z " fill="#6A6966" transform="translate(57,227)"/>
<path d="M0 0 C0.99 0.33 1.98 0.66 3 1 C2.34 1 1.68 1 1 1 C1 1.66 1 2.32 1 3 C1.66 3.33 2.32 3.66 3 4 C2.34 4 1.68 4 1 4 C1 5.32 1 6.64 1 8 C0.34 8 -0.32 8 -1 8 C-1.625 5.6875 -1.625 5.6875 -2 3 C-1.34 2.01 -0.68 1.02 0 0 Z " fill="#6F706E" transform="translate(117,227)"/>
<path d="M0 0 C0.99 0 1.98 0 3 0 C2.67 2.97 2.34 5.94 2 9 C0.68 8.67 -0.64 8.34 -2 8 C-1.33333333 5.33333333 -0.66666667 2.66666667 0 0 Z " fill="#242022" transform="translate(108,200)"/>
<path d="M0 0 C1.32 0 2.64 0 4 0 C4 1.65 4 3.3 4 5 C2.35 5 0.7 5 -1 5 C-0.67 3.35 -0.34 1.7 0 0 Z " fill="#73716D" transform="translate(74,190)"/>
<path d="M0 0 C2.475 0.495 2.475 0.495 5 1 C4.67 2.32 4.34 3.64 4 5 C2.68 5 1.36 5 0 5 C0 3.35 0 1.7 0 0 Z " fill="#6A6D6A" transform="translate(151,190)"/>
<path d="M0 0 C-0.33 0.99 -0.66 1.98 -1 3 C-1.99 3 -2.98 3 -4 3 C-4.33 4.65 -4.66 6.3 -5 8 C-7 5 -7 5 -7 1 C-4 0 -4 0 0 0 Z " fill="#35363B" transform="translate(192,189)"/>
<path d="M0 0 C1.32 0.33 2.64 0.66 4 1 C3.34 1 2.68 1 2 1 C2 2.32 2 3.64 2 5 C2.66 5.33 3.32 5.66 4 6 C3.34 6 2.68 6 2 6 C2 6.66 2 7.32 2 8 C1.34 8 0.68 8 0 8 C0 5.36 0 2.72 0 0 Z " fill="#6E7477" transform="translate(108,11)"/>
<path d="M0 0 C1.98 0.495 1.98 0.495 4 1 C3.67 2.32 3.34 3.64 3 5 C3 4.34 3 3.68 3 3 C2.34 3 1.68 3 1 3 C1.33 3.99 1.66 4.98 2 6 C1.01 5.67 0.02 5.34 -1 5 C-0.67 3.35 -0.34 1.7 0 0 Z " fill="#737370" transform="translate(56,216)"/>
<path d="M0 0 C1.65 0 3.3 0 5 0 C5 1.65 5 3.3 5 5 C3.35 5 1.7 5 0 5 C0 3.35 0 1.7 0 0 Z " fill="#6B7E8F" transform="translate(31,203)"/>
<path d="M0 0 C1.32 0 2.64 0 4 0 C3.67 1.65 3.34 3.3 3 5 C1.68 4.67 0.36 4.34 -1 4 C-0.67 2.68 -0.34 1.36 0 0 Z " fill="#6F6F69" transform="translate(122,190)"/>
<path d="M0 0 C2.475 0.495 2.475 0.495 5 1 C4.34 2.32 3.68 3.64 3 5 C2.01 4.67 1.02 4.34 0 4 C0 2.68 0 1.36 0 0 Z " fill="#201F20" transform="translate(338,164)"/>
<path d="M0 0 C1.32 0.33 2.64 0.66 4 1 C4 1.66 4 2.32 4 3 C3.34 3 2.68 3 2 3 C2 3.99 2 4.98 2 6 C2.66 6.33 3.32 6.66 4 7 C2.68 6.67 1.36 6.34 0 6 C0 4.02 0 2.04 0 0 Z " fill="#6F706C" transform="translate(510,135)"/>
<path d="M0 0 C0.33 0.66 0.66 1.32 1 2 C1.99 2.33 2.98 2.66 4 3 C3.34 3 2.68 3 2 3 C2 4.32 2 5.64 2 7 C2.66 7.33 3.32 7.66 4 8 C2.68 7.67 1.36 7.34 0 7 C-1.125 2.25 -1.125 2.25 0 0 Z " fill="#757670" transform="translate(355,161)"/>
<path d="M0 0 C1.32 0.33 2.64 0.66 4 1 C4 2.98 4 4.96 4 7 C3.01 6.67 2.02 6.34 1 6 C0.67 4.02 0.34 2.04 0 0 Z " fill="#4A4E4F" transform="translate(86,11)"/>
<path d="M0 0 C1.66666667 0 3.33333333 0 5 0 C5 1.65 5 3.3 5 5 C3.35 4.67 1.7 4.34 0 4 C0 2.68 0 1.36 0 0 Z " fill="#737B7D" transform="translate(91,217)"/>
<path d="M0 0 C1.32 0.33 2.64 0.66 4 1 C3.67 2.32 3.34 3.64 3 5 C3 4.34 3 3.68 3 3 C2.34 3 1.68 3 1 3 C1.33 3.99 1.66 4.98 2 6 C1.34 6 0.68 6 0 6 C0 4.02 0 2.04 0 0 Z " fill="#6F7474" transform="translate(2,216)"/>
<path d="M0 0 C1.32 0.33 2.64 0.66 4 1 C3.67 2.65 3.34 4.3 3 6 C2.01 6 1.02 6 0 6 C0 4.02 0 2.04 0 0 Z " fill="#646869" transform="translate(2,203)"/>
<path d="M0 0 C0.99 0.33 1.98 0.66 3 1 C3.6875 3.0625 3.6875 3.0625 4 5 C2.68 5.33 1.36 5.66 0 6 C0 4.02 0 2.04 0 0 Z " fill="#696967" transform="translate(62,203)"/>
<path d="M0 0 C1.32 0 2.64 0 4 0 C4 0.99 4 1.98 4 3 C3.01 3 2.02 3 1 3 C0.67 3.66 0.34 4.32 0 5 C-0.5625 3.0625 -0.5625 3.0625 -1 1 C-0.67 0.67 -0.34 0.34 0 0 Z " fill="#686D71" transform="translate(8,203)"/>
<path d="M0 0 C0.99 0.33 1.98 0.66 3 1 C3 2.32 3 3.64 3 5 C2.01 5.33 1.02 5.66 0 6 C-1.125 2.25 -1.125 2.25 0 0 Z " fill="#131217" transform="translate(347,163)"/>
<path d="M0 0 C0.99 0 1.98 0 3 0 C3 1.65 3 3.3 3 5 C1.68 5 0.36 5 -1 5 C-0.67 3.35 -0.34 1.7 0 0 Z " fill="#788284" transform="translate(48,11)"/>
</svg>
