<?xml version="1.0" encoding="UTF-8"?>
<svg version="1.1" xmlns="http://www.w3.org/2000/svg" width="674" height="280">
<path d="M0 0 C222.42 0 444.84 0 674 0 C674 92.4 674 184.8 674 280 C451.58 280 229.16 280 0 280 C0 187.6 0 95.2 0 0 Z " fill="#FEFEFE" transform="translate(0,0)"/>
<path d="M0 0 C8.58 0 17.16 0 26 0 C33.03902662 16.98418266 40.05903193 33.97543661 47 51 C52.06403005 40.42641008 56.46169677 29.63070326 60.8125 18.75 C61.83012602 16.20773883 62.84874339 13.6658975 63.87052917 11.12530518 C64.50072076 9.55823203 65.12850527 7.99018825 65.75361633 6.42108154 C67.8875137 1.1124863 67.8875137 1.1124863 69 0 C77.25 0 85.5 0 94 0 C94 27.39 94 54.78 94 83 C87.73 83 81.46 83 75 83 C75 66.17 75 49.34 75 32 C74.34 32 73.68 32 73 32 C72.90775146 32.80107178 72.81550293 33.60214355 72.72045898 34.42749023 C71.8135805 38.92439054 70.20401486 42.92414367 68.47265625 47.16015625 C68.12367783 48.02764999 67.7746994 48.89514374 67.41514587 49.78892517 C66.30326858 52.54911246 65.18304091 55.30582005 64.0625 58.0625 C63.31259343 59.91969682 62.56323867 61.77711655 61.81445312 63.63476562 C60.16180067 67.73210531 58.50388064 71.82726668 56.84120178 75.92054749 C55.88764208 78.27774899 54.94436076 80.6390981 54 83 C49.71 83 45.42 83 41 83 C36.64547411 72.61678098 32.41159162 62.1868053 28.1875 51.75 C25.815625 45.8925 23.44375 40.035 21 34 C20.67 50.5 20.34 67 20 84 C13.4 84 6.8 84 0 84 C0 56.28 0 28.56 0 0 Z " fill="#DB7425" transform="translate(335,115)"/>
<path d="M0 0 C49.93839836 0 49.93839836 0 60 10 C64.43688722 15.87090878 65.15156002 21.17262781 65.1875 28.375 C65.20167969 29.66148437 65.21585937 30.94796875 65.23046875 32.2734375 C64.74491507 40.12459357 61.46641621 45.93982945 55.6875 51.1875 C48.45787387 57.54186873 41.24836136 57.38959014 32.0625 57.1875 C28.081875 57.125625 24.10125 57.06375 20 57 C20 65.91 20 74.82 20 84 C13.4 84 6.8 84 0 84 C0 56.28 0 28.56 0 0 Z " fill="#DB7424" transform="translate(18,115)"/>
<path d="M0 0 C4.54133394 3.12216708 7.71123378 6.50072478 9.75 11.7109375 C10.27797593 15.44850333 10.21736342 19.12616943 10.140625 22.89453125 C10.13496521 23.95003677 10.12930542 25.0055423 10.12347412 26.09303284 C10.10118595 29.44530689 10.05100215 32.79648962 10 36.1484375 C9.9799253 38.42902096 9.96167623 40.70962127 9.9453125 42.99023438 C9.90134568 48.56421891 9.83236921 54.13739353 9.75 59.7109375 C3.48 59.7109375 -2.79 59.7109375 -9.25 59.7109375 C-9.745 55.7509375 -9.745 55.7509375 -10.25 51.7109375 C-10.806875 52.4740625 -11.36375 53.2371875 -11.9375 54.0234375 C-15.84979728 58.57016136 -19.85783342 60.38507583 -25.73046875 60.94921875 C-32.38295827 61.13161024 -37.58444215 60.35814036 -43.25 56.7109375 C-47.51258113 52.33905942 -49.53683063 48.44524853 -49.5625 42.3359375 C-49.41947429 36.00915323 -48.08725779 32.54819529 -43.5625 28.0234375 C-37.58206617 23.46482249 -31.44480693 22.45522174 -24.08203125 21.9609375 C-19.72997987 21.57675641 -15.50867086 20.66244097 -11.25 19.7109375 C-11.51393501 16.27863302 -11.51393501 16.27863302 -12.25 12.7109375 C-15.91781672 10.26572635 -18.98453233 9.98855991 -23.25 10.7109375 C-25.68119623 12.58108844 -26.89069173 13.99232095 -28.25 16.7109375 C-34.19 16.3809375 -40.13 16.0509375 -46.25 15.7109375 C-45.15697649 8.05977292 -43.80165413 5.60319976 -38.25 0.7109375 C-27.02912037 -6.54717795 -11.56375127 -6.62506583 0 0 Z " fill="#DB7628" transform="translate(488.25,139.2890625)"/>
<path d="M0 0 C6.93 0 13.86 0 21 0 C21.5775 2.51625 22.155 5.0325 22.75 7.625 C24.32033379 14.37438421 26.10093447 21.03253536 28.05078125 27.68359375 C29.5025942 32.75597725 30.75223623 37.87443948 32 43 C35.17571771 34.08136139 37.54662669 25.09148291 39.6875 15.875 C40.2923553 13.28828516 40.90141555 10.70262951 41.51171875 8.1171875 C41.77428467 6.98909668 42.03685059 5.86100586 42.30737305 4.69873047 C43 2 43 2 44 0 C50.93 0 57.86 0 65 0 C63.70955852 5.80698664 62.44412077 11.0563404 60.5625 16.625 C60.15128906 17.85476562 59.74007812 19.08453125 59.31640625 20.3515625 C58.48321974 22.66075005 57.58041831 24.94695647 56.5859375 27.19140625 C53.85057489 33.43815812 52.06853625 40.07341219 50.04882812 46.57617188 C48.20116764 52.45379705 46.20814459 58.19711914 43.85961914 63.89379883 C43.18396457 65.54925807 42.57023955 67.23000406 41.98046875 68.91796875 C39.41273263 76.2670066 35.76576152 80.99564306 28.8515625 84.67578125 C24.49693474 86.44389083 20.32722322 86.37100338 15.6875 86.25 C14.87732422 86.24484375 14.06714844 86.2396875 13.23242188 86.234375 C7.31097626 86.15548813 7.31097626 86.15548813 5 85 C5.64187918 79.86496656 6.68272247 75.0056546 8 70 C8.60328125 70.04640625 9.2065625 70.0928125 9.828125 70.140625 C10.62734375 70.17671875 11.4265625 70.2128125 12.25 70.25 C13.03890625 70.29640625 13.8278125 70.3428125 14.640625 70.390625 C17.80241809 69.86714932 18.95614508 68.38137224 21 66 C18.69494801 56.42854604 15.34436484 47.24180525 12.05615234 37.97753906 C10.08730835 32.42690999 8.13254335 26.87151109 6.1875 21.3125 C5.80255371 20.22638428 5.41760742 19.14026855 5.02099609 18.02124023 C4.65699707 16.97911377 4.29299805 15.9369873 3.91796875 14.86328125 C3.59594482 13.94844971 3.2739209 13.03361816 2.94213867 12.09106445 C1.73279141 8.12331485 0.89981848 4.04918318 0 0 Z " fill="#DB7526" transform="translate(262,136)"/>
<path d="M0 0 C6.93 0 13.86 0 21 0 C21.02578125 2.90167969 21.0515625 5.80335938 21.078125 8.79296875 C21.11655998 11.60955422 21.16171553 14.42595751 21.20751953 17.24243164 C21.23570944 19.19676996 21.25693383 21.15122186 21.27099609 23.10571289 C21.29245307 25.91872223 21.33911695 28.73036871 21.390625 31.54296875 C21.39185364 32.41398727 21.39308228 33.2850058 21.39434814 34.18241882 C21.4915238 38.22580472 21.70914741 40.5040052 23.79199219 44.0559082 C26.48309504 46.42535225 28.48052328 46.65492017 32.03125 46.4296875 C35.12803425 45.75380205 36.85893112 44.27083063 39 42 C40.30920503 38.0723849 40.23462868 34.27429369 40.31640625 30.17578125 C40.33718735 29.31438034 40.35796844 28.45297943 40.37937927 27.56547546 C40.44474909 24.81456456 40.50370132 22.06355844 40.5625 19.3125 C40.60569717 17.44725579 40.64931185 15.5820212 40.69335938 13.71679688 C40.80120316 9.14462742 40.90036991 4.57238538 41 0 C47.6 0 54.2 0 61 0 C61 20.79 61 41.58 61 63 C54.73 63 48.46 63 42 63 C41.67 59.7 41.34 56.4 41 53 C40.54109375 53.55429688 40.0821875 54.10859375 39.609375 54.6796875 C38.99578125 55.40414062 38.3821875 56.12859375 37.75 56.875 C37.14671875 57.59429687 36.5434375 58.31359375 35.921875 59.0546875 C32.84221507 62.17190425 30.94286757 62.91805778 26.5390625 63.30078125 C25.24742188 63.30464844 23.95578125 63.30851562 22.625 63.3125 C21.33851562 63.32925781 20.05203125 63.34601563 18.7265625 63.36328125 C13.19306869 62.82385261 9.28818144 60.92136317 5.75 56.625 C-0.13859729 49.29115951 -0.15018786 41.261897 -0.09765625 32.2265625 C-0.0962413 31.3028183 -0.09482635 30.3790741 -0.09336853 29.42733765 C-0.08779609 26.49319138 -0.07524869 23.55912299 -0.0625 20.625 C-0.05748144 18.62890736 -0.05291915 16.63281351 -0.04882812 14.63671875 C-0.03868897 9.75775876 -0.01910822 4.87896599 0 0 Z " fill="#DB7527" transform="translate(93,136)"/>
<path d="M0 0 C6.6 0 13.2 0 20 0 C20 27.72 20 55.44 20 84 C13.4 84 6.8 84 0 84 C0 56.28 0 28.56 0 0 Z " fill="#DB7324" transform="translate(543,115)"/>
<path d="M0 0 C1 1 1 1 1.09765625 4.81640625 C1.09098089 6.39846682 1.07901875 7.98051159 1.0625 9.5625 C1.05798828 10.36880859 1.05347656 11.17511719 1.04882812 12.00585938 C1.03700518 14.00393756 1.01906914 16.00197783 1 18 C-0.30324219 17.91298828 -0.30324219 17.91298828 -1.6328125 17.82421875 C-9.19216647 17.25211104 -9.19216647 17.25211104 -15.75 20.375 C-19.4692889 24.71417038 -19.20707268 28.21323863 -19.31640625 33.7265625 C-19.33718735 34.58937836 -19.35796844 35.45219421 -19.37937927 36.34115601 C-19.44486034 39.10235493 -19.50375298 41.86365038 -19.5625 44.625 C-19.6056866 46.49480172 -19.64930093 48.36459362 -19.69335938 50.234375 C-19.80134674 54.8228191 -19.90043062 59.41133453 -20 64 C-26.6 64 -33.2 64 -40 64 C-40 43.21 -40 22.42 -40 1 C-33.4 1 -26.8 1 -20 1 C-19.67 3.31 -19.34 5.62 -19 8 C-18.443125 7.236875 -17.88625 6.47375 -17.3125 5.6875 C-12.22528452 -0.22466934 -7.51107053 -0.72328827 0 0 Z " fill="#DB7527" transform="translate(207,135)"/>
<path d="M0 0 C0 5.94 0 11.88 0 18 C-2.96223958 17.90234375 -5.92447917 17.8046875 -8.88671875 17.70703125 C-12.41836599 18.03936945 -14.18255429 18.88321504 -17 21 C-19.00667234 24.01000852 -19.25491971 24.63492456 -19.31884766 28.01245117 C-19.33871735 28.81305466 -19.35858704 29.61365814 -19.37905884 30.43852234 C-19.39638565 31.72772331 -19.39638565 31.72772331 -19.4140625 33.04296875 C-19.43342865 33.9265657 -19.4527948 34.81016266 -19.4727478 35.72053528 C-19.53252805 38.54275866 -19.57892266 41.36502286 -19.625 44.1875 C-19.66318122 46.10092925 -19.70223304 48.01434133 -19.7421875 49.92773438 C-19.83986731 54.6184003 -19.91944761 59.3088834 -20 64 C-26.6 64 -33.2 64 -40 64 C-40 43.21 -40 22.42 -40 1 C-33.73 1 -27.46 1 -21 1 C-20.67 3.97 -20.34 6.94 -20 10 C-19.46375 9.0925 -18.9275 8.185 -18.375 7.25 C-13.41812907 -0.01319282 -8.27038361 -0.44704776 0 0 Z " fill="#DB7425" transform="translate(256,135)"/>
<path d="M0 0 C6.6 0 13.2 0 20 0 C20 20.79 20 41.58 20 63 C13.4 63 6.8 63 0 63 C0 42.21 0 21.42 0 0 Z " fill="#DB7526" transform="translate(510,136)"/>
<path d="M0 0 C3.3 0 6.6 0 10 0 C12.31 5.61 14.62 11.22 17 17 C19.63636604 13.48484527 21.03088923 10.82711639 22.625 6.8125 C24.90744467 1.09255533 24.90744467 1.09255533 26 0 C28.97 0 31.94 0 35 0 C35 10.56 35 21.12 35 32 C32.69 32 30.38 32 28 32 C27.67 26.06 27.34 20.12 27 14 C25.06742362 19.21946973 25.06742362 19.21946973 23.14086914 24.44116211 C21.11111111 29.88888889 21.11111111 29.88888889 20 31 C18.35 31 16.7 31 15 31 C12.69 25.72 10.38 20.44 8 15 C7.67 20.61 7.34 26.22 7 32 C4.69 32 2.38 32 0 32 C0 21.44 0 10.88 0 0 Z " fill="#DB7628" transform="translate(610,87)"/>
<path d="M0 0 C2.35125 -0.061875 4.7025 -0.12375 7.125 -0.1875 C7.85348145 -0.21481201 8.58196289 -0.24212402 9.33251953 -0.27026367 C13.99867098 -0.32911261 17.04690652 0.56461205 21 3 C24.40742294 6.74816523 24.56715484 10.68445522 24.421875 15.55859375 C23.72071026 19.61626006 22.02786468 21.24739574 19 24 C15.31296243 26.5092339 11.5392799 26.22959401 7.25 26.125 C4.8575 26.08375 2.465 26.0425 0 26 C0 17.42 0 8.84 0 0 Z " fill="#FDF9F5" transform="translate(38,131)"/>
<path d="M0 0 C8.91 0 17.82 0 27 0 C27 1.98 27 3.96 27 6 C23.7 6 20.4 6 17 6 C17 14.58 17 23.16 17 32 C14.36 32 11.72 32 9 32 C9 23.42 9 14.84 9 6 C6.03 6 3.06 6 0 6 C0 4.02 0 2.04 0 0 Z " fill="#DD7B2F" transform="translate(579,87)"/>
<path d="M0 0 C3.120231 1.99694784 4.58556388 3.28699736 5.46875 6.9375 C5.76001833 10.78224192 5.19618595 12.68610247 3.125 16 C-1.26546717 18.80989899 -4.92406701 19.0151866 -10 18 C-13.120231 16.00305216 -14.58556388 14.71300264 -15.46875 11.0625 C-15.76001833 7.21775808 -15.19618595 5.31389753 -13.125 2 C-8.73453283 -0.80989899 -5.07593299 -1.0151866 0 0 Z " fill="#DB7628" transform="translate(525,110)"/>
<path d="M0 0 C0.31306141 5.21769009 -0.02138164 8.63135974 -3 13 C-7.30312122 15.93394628 -10.8387448 16.6690516 -16 16 C-19.13822498 13.90785001 -19.85604117 12.6910024 -20.625 9 C-20 6 -20 6 -17.625 3.75 C-12.29670696 0.70526112 -6.03542762 0 0 0 Z " fill="#FCF6F2" transform="translate(478,171)"/>
<path d="M0 0 C0.33 0 0.66 0 1 0 C1 6.27 1 12.54 1 19 C0.67 19 0.34 19 0 19 C-0.06058594 18.16855469 -0.12117187 17.33710937 -0.18359375 16.48046875 C-0.26738281 15.39378906 -0.35117187 14.30710937 -0.4375 13.1875 C-0.51871094 12.10855469 -0.59992187 11.02960938 -0.68359375 9.91796875 C-0.90212461 6.94010095 -0.90212461 6.94010095 -2 4 C-1.0625 1.8125 -1.0625 1.8125 0 0 Z " fill="#F9ECE1" transform="translate(637,100)"/>
</svg>
